<svg width="52" height="52" viewBox="0 0 52 52" fill="none" xmlns="http://www.w3.org/2000/svg">
<rect width="52" height="52" rx="26" fill="#E4E7EC"/>
<path d="M10.9433 41.4124C10.8523 41.4124 10.7612 41.3775 10.6919 41.3082C10.5529 41.1692 10.5529 40.9445 10.6919 40.8054L25.0005 26.4968C25.1395 26.3578 25.3642 26.3578 25.5033 26.4968C25.6423 26.6359 25.6423 26.8606 25.5033 26.9996L11.1947 41.3082C11.125 41.3775 11.034 41.4124 10.9433 41.4124Z" fill="black"/>
<path d="M38.2384 24.9543C38.0891 24.9543 37.9433 24.9685 37.7997 24.9891C37.6322 24.0956 37.0786 23.339 36.3188 22.8984C35.58 23.8862 34.7686 24.8981 33.8818 25.9345L33.9693 29.3866H37.7457H40.9883C41.192 28.9759 41.3094 28.5148 41.3094 28.0255C41.3094 26.3292 39.9344 24.9543 38.2384 24.9543Z" fill="#121212"/>
<path d="M18.4625 18.907C19.0762 18.2933 19.9281 17.9509 20.7939 17.9758L26.3992 18.1181C27.3852 17.2743 28.348 16.5017 29.2902 15.7917C28.5496 14.7076 27.3045 13.9954 25.8922 13.9954C25.692 13.9954 25.4972 14.0146 25.3045 14.0423C24.9479 12.1341 23.2764 10.6895 21.265 10.6895C19.2536 10.6895 17.5822 12.1341 17.2252 14.0416C17.0328 14.0139 16.8376 13.9947 16.6375 13.9947C14.3658 13.9947 12.5244 15.8361 12.5244 18.1077C12.5244 18.7634 12.6819 19.381 12.9546 19.931H17.4385L18.4625 18.907Z" fill="#121212"/>
<path d="M33.6447 20.5507C33.0175 20.5507 32.4276 20.3065 31.9843 19.8628C31.5405 19.419 31.2959 18.8295 31.2959 18.2023C31.2959 17.5748 31.5405 16.9852 31.9843 16.5415C32.4276 16.0978 33.0175 15.8535 33.6447 15.8535C34.2722 15.8535 34.8621 16.0978 35.3055 16.5415C35.7492 16.9852 35.9935 17.5748 35.9935 18.2023C35.9935 18.8295 35.7492 19.4194 35.3055 19.8628C34.8621 20.3065 34.2719 20.5507 33.6447 20.5507ZM33.6447 16.5646C33.2077 16.5646 32.7963 16.7349 32.487 17.0443C32.1777 17.3536 32.007 17.7646 32.007 18.2023C32.007 18.6396 32.1773 19.0507 32.487 19.36C32.7963 19.6693 33.2074 19.8396 33.6447 19.8396C34.082 19.8396 34.4934 19.6693 34.8027 19.36C35.1121 19.0507 35.2824 18.6396 35.2824 18.2023C35.2824 17.765 35.1121 17.3536 34.8027 17.0443C34.493 16.7349 34.082 16.5646 33.6447 16.5646Z" fill="black"/>
<path d="M41.9954 11.1809C42.0252 10.8598 41.9118 10.5448 41.6836 10.3165C41.4553 10.0883 41.1381 9.97484 40.8192 10.0047C36.6845 10.3919 31.7497 13.0351 26.0964 17.8792L20.4569 17.7362C19.6118 17.711 18.7901 18.0445 18.1949 18.6397L15.6186 21.2161C15.3327 21.5019 15.2239 21.9062 15.3281 22.2969C15.4322 22.6877 15.7274 22.9842 16.1178 23.0902L20.1249 24.1768L22.6337 26.6852C22.7727 26.8242 22.9974 26.8242 23.1364 26.6852C23.2754 26.5462 23.2754 26.3215 23.1364 26.1824L20.8086 23.8546C28.8125 15.6317 35.5659 11.2111 40.8857 10.713C40.9956 10.7044 41.1029 10.7418 41.1808 10.8196C41.2587 10.8975 41.2974 11.0052 41.2871 11.1147C40.7893 16.4342 36.368 23.188 28.1455 31.1919L25.8173 28.8637C25.6783 28.7247 25.4536 28.7247 25.3145 28.8637C25.1755 29.0027 25.1755 29.2274 25.3145 29.3664L27.8237 31.8752L28.9103 35.882C29.0159 36.2727 29.3127 36.5678 29.7035 36.672C29.8009 36.698 29.8994 36.7108 29.9968 36.7108C30.2884 36.7104 30.5696 36.5959 30.784 36.3812L33.36 33.8052C33.9559 33.2093 34.2855 32.3851 34.2638 31.5431L34.1209 25.9037C38.9646 20.2504 41.6078 15.3156 41.9954 11.1809ZM20.2009 23.4607L16.3041 22.404C16.0982 22.3481 16.0338 22.1825 16.0154 22.1142C15.9972 22.0456 15.9709 21.8696 16.1217 21.7192L18.698 19.1428C19.1567 18.6845 19.7931 18.4317 20.4392 18.4473L25.301 18.5704C23.6594 20.0193 21.9585 21.6505 20.2009 23.4607ZM33.5527 31.5613C33.5694 32.2091 33.3159 32.8438 32.8573 33.3024L30.2813 35.8784C30.1305 36.0292 29.9552 36.0029 29.8866 35.9847C29.818 35.9662 29.6523 35.9019 29.5965 35.6957L28.5398 31.7991C30.3495 30.0416 31.9812 28.341 33.4301 26.6994L33.5527 31.5613Z" fill="black"/>
<path d="M18.8996 37.5684C18.8086 37.5684 18.7175 37.5335 18.6482 37.4642C18.5092 37.3252 18.5092 37.1005 18.6482 36.9614L24.4601 31.1492C24.5991 31.0102 24.8238 31.0102 24.9629 31.1492C25.1019 31.2882 25.1019 31.5129 24.9629 31.6519L19.151 37.4642C19.0813 37.5335 18.9903 37.5684 18.8996 37.5684Z" fill="#121212"/>
<path d="M13.172 34.7219C13.081 34.7219 12.99 34.687 12.9207 34.6177C12.7817 34.4787 12.7817 34.254 12.9207 34.115L19.9646 27.0711C20.1036 26.932 20.3283 26.932 20.4673 27.0711C20.6063 27.2101 20.6063 27.4348 20.4673 27.5738L13.4234 34.6177C13.3537 34.6874 13.2631 34.7219 13.172 34.7219Z" fill="#121212"/>
<path d="M22.7531 38.0928C22.6621 38.0928 22.5711 38.0579 22.5017 37.9886C22.3627 37.8496 22.3627 37.6248 22.5017 37.4858L25.6427 34.3445C25.7817 34.2055 26.0064 34.2055 26.1455 34.3445C26.2845 34.4835 26.2845 34.7082 26.1455 34.8473L23.0045 37.9886C22.9351 38.0579 22.8441 38.0928 22.7531 38.0928Z" fill="#121212"/>
<path d="M14.7453 28.7696C14.6543 28.7696 14.5632 28.7348 14.4939 28.6654C14.3549 28.5264 14.3549 28.3017 14.4939 28.1627L17.0624 25.5945C17.2015 25.4555 17.4262 25.4555 17.5652 25.5945C17.7042 25.7335 17.7042 25.9582 17.5652 26.0976L14.9967 28.6658C14.9273 28.7348 14.8363 28.7696 14.7453 28.7696Z" fill="#121212"/>
<path d="M17.0499 40.1736C16.8536 40.1736 16.6943 40.0146 16.6943 39.818V38.3048C16.6943 38.1082 16.8536 37.9492 17.0499 37.9492C17.2462 37.9492 17.4054 38.1082 17.4054 38.3048V39.818C17.4054 40.0146 17.2465 40.1736 17.0499 40.1736Z" fill="#121212"/>
<path d="M17.8069 39.4162H16.294C16.0978 39.4162 15.9385 39.2573 15.9385 39.0606C15.9385 38.864 16.0978 38.7051 16.294 38.7051H17.8069C18.0032 38.7051 18.1625 38.864 18.1625 39.0606C18.1625 39.2573 18.0032 39.4162 17.8069 39.4162Z" fill="#121212"/>
<path d="M12.8927 31.3786C12.6964 31.3786 12.5371 31.2197 12.5371 31.0231V29.5099C12.5371 29.3132 12.6964 29.1543 12.8927 29.1543C13.0889 29.1543 13.2482 29.3132 13.2482 29.5099V31.0231C13.2482 31.2197 13.0893 31.3786 12.8927 31.3786Z" fill="#121212"/>
<path d="M13.6497 30.6232H12.1368C11.9405 30.6232 11.7812 30.4643 11.7812 30.2677C11.7812 30.071 11.9405 29.9121 12.1368 29.9121H13.6497C13.846 29.9121 14.0052 30.071 14.0052 30.2677C14.0052 30.4643 13.846 30.6232 13.6497 30.6232Z" fill="#121212"/>
<path d="M11.1356 37.5382C10.8324 37.5382 10.5472 37.4198 10.3324 37.205C10.118 36.991 10 36.7054 10 36.4025C10 36.0996 10.118 35.8141 10.3324 35.5993C10.7755 35.157 11.4958 35.157 11.9385 35.5993C12.1532 35.8141 12.2713 36.0992 12.2713 36.4025C12.2713 36.7058 12.1532 36.9906 11.9388 37.2054C11.7241 37.4198 11.4389 37.5382 11.1356 37.5382ZM11.1356 35.978C11.0268 35.978 10.9184 36.0192 10.8356 36.1021C10.7552 36.1824 10.7111 36.2887 10.7111 36.4025C10.7111 36.5156 10.7552 36.6222 10.8356 36.7026C10.9959 36.863 11.2757 36.863 11.4357 36.7026C11.5161 36.6222 11.5602 36.5159 11.5602 36.4025C11.5602 36.2891 11.5161 36.1824 11.4357 36.1021C11.3529 36.0196 11.2441 35.978 11.1356 35.978Z" fill="#121212"/>
<path d="M20.9003 40.723C20.6094 40.723 20.3186 40.6121 20.0974 40.3909C19.8827 40.1765 19.7646 39.8913 19.7646 39.5877C19.7646 39.2844 19.8827 38.9993 20.0974 38.7849C20.5401 38.3425 21.2605 38.3425 21.7035 38.7849C21.9182 38.9993 22.0363 39.2844 22.0363 39.5877C22.0363 39.8913 21.9182 40.1765 21.7035 40.3909C21.482 40.6124 21.1911 40.723 20.9003 40.723ZM20.9003 39.1639C20.7915 39.1639 20.683 39.2051 20.6002 39.288C20.5198 39.3683 20.4758 39.4746 20.4758 39.5881C20.4758 39.7015 20.5198 39.8081 20.6002 39.8885C20.7659 40.0538 21.035 40.0538 21.2004 39.8885C21.2807 39.8081 21.3248 39.7018 21.3248 39.5881C21.3248 39.475 21.2807 39.3683 21.2004 39.288C21.1179 39.2055 21.0091 39.1639 20.9003 39.1639Z" fill="#121212"/>
</svg>
