<svg width="52" height="52" viewBox="0 0 52 52" fill="none" xmlns="http://www.w3.org/2000/svg">
<rect width="52" height="52" rx="26" fill="#E4E7EC"/>
<path fill-rule="evenodd" clip-rule="evenodd" d="M25.9458 9C31.9125 12.7821 37.3028 14.5715 41.929 14.1485C42.7369 30.4899 36.7021 40.1406 26.0077 44.1683C15.6801 40.3984 9.57148 31.163 10.0245 13.9006C15.4552 14.1848 20.7831 13.0108 25.9458 9ZM19.6698 28.111C19.332 27.8219 19.2926 27.3137 19.5813 26.9757C19.8707 26.6377 20.379 26.5984 20.7167 26.8872L24.0063 29.7134L31.2128 21.7903C31.5124 21.4612 32.0222 21.4371 32.3516 21.7365C32.6804 22.0358 32.7045 22.5456 32.4051 22.875L24.672 31.3774L24.6714 31.3768C24.3795 31.6977 23.8841 31.7306 23.5524 31.4467L19.6698 28.111ZM25.9521 11.0191C31.2337 14.3668 36.0052 15.9509 40.1002 15.5763C40.8151 30.0411 35.4734 38.5839 26.0074 42.1488C16.8656 38.812 11.4578 30.6376 11.8591 15.3568C16.6664 15.6086 21.3824 14.5695 25.9521 11.0191Z" fill="black"/>
</svg>
