<svg width="52" height="52" viewBox="0 0 52 52" fill="none" xmlns="http://www.w3.org/2000/svg">
<rect width="52" height="52" rx="26" fill="#E4E7EC"/>
<path d="M38.4422 19.2113C37.9507 19.2113 37.5513 19.6101 37.5513 20.1021V36.3691C37.5513 38.0883 36.1525 39.487 34.4334 39.487H14.8996C13.1807 39.487 11.7817 38.0883 11.7817 36.3691V16.8352C11.7817 15.1159 13.1807 13.7173 14.8996 13.7173H34.4334C34.9258 13.7173 35.3245 13.3184 35.3245 12.8264C35.3245 12.3344 34.926 11.9355 34.4334 11.9355H14.8996C12.1985 11.9356 10 14.1336 10 16.8351V36.3691C10 39.0707 12.1985 41.2686 14.8996 41.2686H34.4334C37.1355 41.2686 39.3332 39.0707 39.3332 36.3691V20.1021C39.333 19.6102 38.9346 19.2113 38.4422 19.2113Z" fill="#121212"/>
<path d="M41.7388 11.261C41.3909 10.913 40.8261 10.913 40.4793 11.261L22.5789 29.1604L18.1048 24.6868C17.7569 24.3388 17.1931 24.3388 16.8452 24.6868C16.4973 25.0347 16.4973 25.5987 16.8452 25.9464L21.95 31.05C22.124 31.2241 22.352 31.311 22.5798 31.311C22.8078 31.311 23.0358 31.2241 23.2097 31.05C23.2097 31.0495 23.2097 31.0491 23.2106 31.0486L41.7388 12.5206C42.0868 12.1729 42.0868 11.6087 41.7388 11.261Z" fill="#121212"/>
</svg>
