<svg width="187" height="36" viewBox="0 0 187 36" fill="none" xmlns="http://www.w3.org/2000/svg">
<g clip-path="url(#clip0_212_478)">
<path d="M17.3254 0.5H7.66249L7.64398 0.534101L6.31039 2.9998H17.3254C25.4846 2.9998 32.1032 9.71558 32.1032 18C32.1032 26.2844 25.4867 33.0002 17.3254 33.0002C9.16407 33.0002 2.54685 26.2837 2.54685 18C2.54618 16.4329 2.78796 14.8755 3.26335 13.3846H6.08481C4.08476 18.4012 5.54794 24.1554 9.69017 27.5629C13.8324 30.9705 19.6816 31.2319 24.1028 28.2069C28.524 25.1819 30.4797 19.5805 28.9216 14.4049C27.3635 9.22926 22.6572 5.69377 17.3254 5.69377H4.85406L3.50264 8.19287H17.3254C21.6676 8.19378 25.4757 11.135 26.6341 15.3826C27.7925 19.6302 26.0166 24.1404 22.2929 26.4076C18.5692 28.6747 13.8129 28.1416 10.6662 25.1045C7.51947 22.0675 6.75579 17.2726 8.7993 13.3839H11.9958C9.8622 15.9261 9.75901 19.6328 11.7477 22.2933C13.7365 24.9539 17.2813 25.8512 20.268 24.4503C23.2547 23.0494 24.8787 19.7277 24.1712 16.4662C23.4638 13.2047 20.6156 10.8823 17.3254 10.8841H2.04632L0.694214 13.3846C0.289485 14.8886 0.0842644 16.4408 0.0839844 18C0.0839844 27.6645 7.80305 35.5 17.3254 35.5C26.8477 35.5 34.5668 27.6645 34.5668 18C34.5668 8.33554 26.847 0.5 17.3254 0.5ZM17.3254 13.3846C19.8368 13.3846 21.8726 15.4509 21.8726 18C21.8726 20.5491 19.8368 22.6154 17.3254 22.6154C14.814 22.6154 12.7781 20.5491 12.7781 18C12.7781 15.4509 14.814 13.3846 17.3254 13.3846ZM42.1453 18.3695C42.1453 13.5077 45.3589 10.0921 50.1784 10.0921C53.1493 10.0921 55.5745 11.4144 56.8477 13.6309L54.0592 15.631C53.1795 14.2148 51.8459 13.5384 50.2696 13.5384C47.6641 13.5384 45.9349 15.4174 45.9349 18.3695C45.9349 21.2925 47.6627 23.2 50.2696 23.2C51.8466 23.2 53.1795 22.4923 54.0592 21.0767L56.8477 23.0769C55.5745 25.3233 53.1493 26.6157 50.1784 26.6157C45.3589 26.6157 42.1453 23.2 42.1453 18.3695ZM57.3716 18.3695C57.3716 13.8153 60.555 10.0921 65.4965 10.0921C70.4682 10.0921 73.6208 13.8153 73.6208 18.3695C73.6208 22.8931 70.4668 26.6157 65.4965 26.6157C60.5585 26.6157 57.3716 22.8924 57.3716 18.3695ZM69.8312 18.3695C69.8312 15.5079 68.1637 13.5077 65.4965 13.5077C62.8294 13.5077 61.1612 15.5079 61.1612 18.3695C61.1612 21.1999 62.8287 23.2 65.4965 23.2C68.1644 23.2 69.8312 21.1999 69.8312 18.3695ZM97.897 10.5215L93.166 26.1835H89.1714L85.8275 15.1369L82.4541 26.1835H78.454L73.7504 10.5215H77.42L80.6159 21.8137L84.0482 10.5215H87.5992L91.0323 21.8137L94.1979 10.5215H97.897ZM149.865 10.5215L145.13 26.1835H141.136L137.792 15.1369L134.418 26.1835H130.426L125.721 10.525H129.391L132.587 21.8172L136.016 10.5215H139.567L143 21.8137L146.166 10.5215H149.865ZM108.965 10.4616V13.9691C108.404 13.8747 107.837 13.8233 107.268 13.8153C104.57 13.8153 103.145 15.2002 103.145 18.4614V26.1863H99.4486V10.5215H103.083V13.1382C103.841 11.3232 105.508 10.2459 107.63 10.2459C108.084 10.2369 108.536 10.3099 108.965 10.4616ZM124.31 10.5215V24.6142C124.31 29.8761 121.43 32.7678 116.336 32.7678C113.699 32.7678 111.274 31.9681 109.818 30.5832L111.486 27.8447C112.789 28.8886 114.487 29.414 116.124 29.414C118.974 29.414 120.672 27.7835 120.672 24.6121V23.2613C119.793 24.9844 117.913 26.0304 115.639 26.0304C112.365 26.0304 110.304 23.9384 110.304 20.1226V10.5215H114.002V19.1692C114.002 21.5695 114.972 22.6154 116.912 22.6154C119.156 22.6154 120.641 21.2312 120.641 18.9534V10.5215H124.31ZM150.838 5.5692C150.838 4.2149 151.778 3.23016 153.203 3.23016C154.597 3.23016 155.534 4.2149 155.534 5.5692C155.534 6.92349 154.594 7.90754 153.203 7.90754C151.778 7.90754 150.838 6.92279 150.838 5.5692ZM151.354 10.5229H155.052V26.1849H151.354V10.5229ZM156.913 23.6308L158.914 21.2612C160.126 22.6154 162.006 23.4151 163.977 23.4151C165.735 23.4151 166.705 22.7386 166.705 21.7539C166.705 20.9229 166.098 20.4003 164.553 20.0307L162.036 19.4462C158.823 18.6771 157.459 17.1691 157.459 15.0151C157.459 12.1228 159.823 10.0921 163.825 10.0921C166.553 10.0921 168.827 11.0455 170.161 12.5849L168.19 15.0151C166.856 13.846 165.34 13.292 163.733 13.292C162.005 13.292 161.157 13.9385 161.157 14.8926C161.157 15.631 161.672 16.0924 163.309 16.4613L165.977 17.1078C169.22 17.8462 170.403 19.3536 170.403 21.5075C170.403 24.6156 168.038 26.6157 163.946 26.6157C160.884 26.6157 158.308 25.4465 156.913 23.6308ZM186.827 19.4768H175.337C175.731 22.0002 177.367 23.3538 179.884 23.3538C181.612 23.3538 183.067 22.708 184.188 21.3843L186.402 23.6002C184.947 25.5078 182.612 26.6157 179.762 26.6157C174.851 26.6157 171.577 23.3538 171.577 18.4308C171.577 13.569 174.731 10.0921 179.399 10.0921C183.885 10.0921 186.917 13.2614 186.917 18.0306C186.916 18.5141 186.886 18.997 186.827 19.4768ZM175.337 16.9241H183.222C183.04 14.6157 181.645 13.3546 179.433 13.3546C177.157 13.3539 175.732 14.6769 175.337 16.9241Z" fill="#0066F5"/>
</g>
<defs>
<clipPath id="clip0_212_478">
<rect width="187" height="35" fill="white" transform="translate(0 0.5)"/>
</clipPath>
</defs>
</svg>
