<svg width="187" height="54" viewBox="0 0 187 54" fill="none" xmlns="http://www.w3.org/2000/svg">
<g clip-path="url(#clip0_212_398)">
<path d="M50.0224 23.3382L54.6714 23.1433C54.6974 23.1416 54.7199 23.1638 54.7199 23.1895L54.7129 26.8396C54.7129 26.9097 54.6662 26.9713 54.5987 26.9935C54.1918 27.1183 53.778 27.2551 53.3572 27.4055C53.0698 27.5064 52.9745 27.7372 53.0732 28.0945C53.0854 28.1373 53.1131 28.1595 53.1598 28.1595L58.046 28.1526C58.0997 28.1526 58.1499 28.1202 58.169 28.0706C58.2296 27.9218 58.2625 27.768 58.2694 27.609C58.2711 27.5457 58.2417 27.503 58.1811 27.4807L56.9448 27.0585C56.8357 27.0225 56.7821 26.9473 56.7821 26.8328L56.7803 18.493C56.7803 18.4177 56.8306 18.3511 56.9033 18.3288C57.3777 18.1801 58.4651 18.0023 58.3214 17.303C58.3058 17.221 58.2538 17.1799 58.169 17.1799C56.6886 17.1731 55.2445 17.1697 53.8368 17.168C53.3711 17.168 53.0819 17.2945 53.2048 17.8194C53.2187 17.8758 53.2533 17.9117 53.307 17.9288L54.5935 18.3391C54.6662 18.363 54.7147 18.4297 54.7147 18.5049L54.7164 21.9961C54.7164 22.044 54.6783 22.0816 54.6316 22.0816L49.9947 22.0833C49.9704 22.0833 49.9514 22.0645 49.9514 22.0405L49.941 18.5374C49.941 18.4451 50.0033 18.3665 50.0916 18.3425C50.6544 18.1989 51.5651 18.0621 51.5236 17.3082C51.5184 17.2346 51.456 17.1765 51.3816 17.1748C49.9652 17.1697 48.5627 17.1697 47.1723 17.1714C46.6771 17.1731 46.3811 17.1081 46.3949 17.7082C46.3966 17.804 46.4434 17.8672 46.5334 17.8963L47.742 18.3015C47.8113 18.3254 47.8563 18.3887 47.8563 18.4605L47.858 26.8276C47.858 26.9029 47.8113 26.9696 47.7403 26.9935C47.2312 27.1747 46.1802 27.3371 46.3395 28.0706C46.3516 28.127 46.3863 28.1561 46.4451 28.1561L51.2448 28.1544C51.4058 28.1544 51.4993 28.0757 51.5288 27.9201C51.5842 27.6141 51.5339 27.4397 51.3764 27.3953C50.921 27.267 50.4743 27.1337 50.0362 26.9918C49.9808 26.9747 49.9444 26.9234 49.9427 26.867L49.9358 23.4271C49.9358 23.3792 49.9739 23.3399 50.0224 23.3382Z" stroke="#226D88" stroke-width="2"/>
<path d="M85.1666 24.52C85.158 24.4567 85.2082 24.4003 85.2723 24.4003H89.5663C89.6356 24.4003 89.6996 24.3661 89.7343 24.308C89.7897 24.2208 89.8364 24.1062 89.8728 23.9677C90.3005 22.3504 89.504 20.6493 87.6998 20.4544C82.4984 19.8919 81.6067 27.8128 86.2627 28.3052C87.5699 28.442 88.7456 28.0128 89.6512 27.093C89.7499 26.9922 89.7845 26.8913 89.7516 26.7904C89.7291 26.7186 89.6512 26.6776 89.5784 26.6981C88.3041 27.0606 86.8998 27.5256 85.9233 26.2792C85.506 25.7458 85.2532 25.1594 85.1666 24.52Z" stroke="#246588" stroke-width="2"/>
<path d="M94.9508 21.2387C95.0876 21.7362 95.0236 22.444 95.5291 22.68C96.336 23.0561 97.5758 21.5721 96.5334 20.9344C94.982 19.9855 91.2541 20.2728 91.3303 22.7723C91.4099 25.3591 95.2331 25.0103 95.3179 26.349C95.3733 27.1952 93.4877 27.3901 92.8298 27.4295C92.7155 27.438 92.6462 27.385 92.622 27.2739L92.345 25.995C92.3224 25.8959 92.2428 25.8172 92.1424 25.7967L91.4896 25.6651C91.4255 25.6514 91.3857 25.6771 91.3736 25.7403L91.0221 27.4671C91.01 27.5235 91.029 27.5662 91.0775 27.5987C91.7476 28.0347 92.4696 28.2792 93.2436 28.3322C94.724 28.433 96.9143 28.0159 97.0927 26.1882C97.2883 24.1862 95.3854 23.8255 93.9345 23.3228C93.2315 23.0818 92.3986 22.3227 93.3059 21.7619C93.7804 21.4695 94.2911 21.2712 94.84 21.1686C94.8989 21.1584 94.9353 21.1823 94.9508 21.2387Z" stroke="#246588" stroke-width="2"/>
<path d="M109.857 23.9925C108.536 23.8438 105.949 23.8301 105.554 25.5603C105.31 26.6323 105.743 28.0787 107.005 28.2719C108.264 28.465 109.305 28.1163 110.124 27.2238C110.195 27.1469 110.319 27.1537 110.382 27.2375L111.133 28.2753C111.161 28.3129 111.199 28.3317 111.246 28.33C111.931 28.306 112.503 28.1829 112.962 27.9607C113.492 27.7025 113.476 27.4837 112.915 27.3008C112.612 27.2016 111.918 26.7964 111.919 26.3587C111.921 25.3808 111.918 24.4029 111.911 23.4249C111.904 22.4589 111.815 21.8041 111.644 21.4639C110.906 19.9816 108.844 20.4176 107.523 20.7595C106.995 20.8963 105.965 21.2417 105.793 21.7101C105.556 22.3564 106.839 23.271 107.43 22.8436C107.766 22.6009 107.809 21.8144 107.868 21.428C107.88 21.3374 107.932 21.2844 108.024 21.2673C109.855 20.9408 110.044 22.6162 109.958 23.9105C109.952 23.972 109.919 23.9994 109.857 23.9925Z" stroke="#255185" stroke-width="2"/>
<path d="M125.028 24.5257C125.018 24.4419 125.056 24.4009 125.141 24.4009H129.378C129.518 24.3992 129.641 24.312 129.684 24.182C130.152 22.7801 129.709 21.1559 128.218 20.6345C126.357 19.9831 124.325 20.8618 123.543 22.6365C122.783 24.3616 123.011 27.1979 125.028 28.0151C126.684 28.687 128.173 28.3844 129.494 27.1073C129.57 27.0338 129.615 26.9671 129.631 26.9107C129.662 26.7961 129.555 26.6901 129.439 26.7192C128.872 26.8611 128.32 26.9739 127.78 27.0577C126.17 27.309 125.193 25.89 125.028 24.5257Z" stroke="#255185" stroke-width="2"/>
<path d="M67.2528 24.4501C67.2528 22.2497 65.4452 20.4648 63.2167 20.4648C60.9883 20.4648 59.1807 22.2497 59.1807 24.4501C59.1807 26.6505 60.9883 28.4354 63.2167 28.4354C65.4452 28.4354 67.2528 26.6505 67.2528 24.4501Z" stroke="#255185" stroke-width="2"/>
<path d="M71.4802 22.1115L73.4264 21.7268C73.5649 21.6995 73.7086 21.7405 73.8108 21.8397C74.2904 22.3047 74.3839 23.2416 74.3943 23.881C74.4099 24.9085 74.4151 25.9343 74.4082 26.955C74.4082 27.0268 74.3701 27.0935 74.306 27.1311C73.9476 27.3397 73.4212 27.5414 73.5857 28.0919C73.5996 28.1381 73.6307 28.162 73.6792 28.162L77.3171 28.1569C77.3898 28.1569 77.4556 28.109 77.4763 28.0407C77.5179 27.9107 77.5352 27.7774 77.53 27.6389C77.5283 27.5756 77.4954 27.5346 77.4348 27.5124L76.4773 27.167C76.4046 27.1397 76.3578 27.073 76.3578 26.9978C76.3578 25.4967 76.4963 23.775 76.2557 22.2859C76.2435 22.2107 76.292 22.1388 76.3682 22.1218C77.0937 21.9593 77.7534 21.8345 78.349 21.749C79.71 21.5541 79.3689 26.2045 79.3671 26.9379C79.3671 27.0166 79.3273 27.0901 79.2598 27.1328C78.8927 27.3653 78.4685 27.5089 78.4806 28.0338C78.4823 28.1056 78.5395 28.162 78.6122 28.162L82.373 28.1569C82.4388 28.1569 82.4855 28.1279 82.5132 28.068C82.5756 27.9364 82.6033 27.7962 82.5946 27.6474C82.5911 27.591 82.5617 27.5534 82.508 27.5346L81.4605 27.1687C81.3653 27.1362 81.3185 27.0696 81.3202 26.9704C81.3393 25.7069 81.3289 24.4196 81.2891 23.1117C81.18 19.588 78.188 20.1351 76.2539 21.6824C76.1847 21.7371 76.0808 21.7114 76.0479 21.6294C75.222 19.5589 72.5884 20.7061 71.4317 21.6379C71.288 21.7559 71.1911 21.7251 71.1409 21.5456L70.8846 20.6241C70.8708 20.5711 70.8171 20.5386 70.7617 20.5488L68.464 20.9831C68.3895 20.9968 68.3255 21.0447 68.2874 21.1113C68.2008 21.2669 68.2493 21.3951 68.4311 21.4977C68.722 21.6636 69.0025 21.8157 69.2709 21.9525C69.3782 22.0072 69.4319 22.0944 69.4319 22.2141V26.8764C69.4319 26.9789 69.3696 27.0713 69.2743 27.1089C68.864 27.273 68.0571 27.4508 68.2527 28.0783C68.2683 28.1244 68.2995 28.1484 68.3497 28.1484C69.6189 28.1586 70.8898 28.1723 72.159 28.1894C72.3183 28.1911 72.4481 28.133 72.5486 28.0133C72.6836 27.8509 72.6195 27.6064 72.4222 27.5295L71.4872 27.167C71.4231 27.1414 71.3815 27.0798 71.3815 27.0114L71.3729 22.2397C71.3729 22.1679 71.4092 22.1252 71.4802 22.1115Z" stroke="#246588" stroke-width="2"/>
<path d="M102.4 21.1883C102.512 21.6157 102.509 22.3868 102.935 22.6022C103.83 23.057 105.62 21.202 103.565 20.6361C100.812 19.877 98.1939 21.573 98.1921 24.4657C98.1887 26.5173 99.2934 28.2014 101.529 28.3347C102.789 28.41 103.768 27.9483 104.569 27.0234C104.683 26.8918 104.657 26.8046 104.491 26.7618C104.467 26.755 104.439 26.755 104.415 26.7618C103.262 27.0439 101.92 27.5107 101.028 26.4079C100.178 25.3531 99.9427 24.1683 100.325 22.8535C100.614 21.8653 101.262 21.2823 102.272 21.1062C102.339 21.0943 102.382 21.1216 102.4 21.1883Z" stroke="#255185" stroke-width="2"/>
<path d="M116.704 27.7697C116.702 27.6689 116.742 27.6501 116.82 27.7167C117.985 28.6912 119.665 28.5169 120.702 27.4432C121.389 26.732 121.798 25.8857 121.926 24.9043C122.123 23.4049 121.832 21.2559 120.151 20.625C118.989 20.189 117.658 20.7395 116.775 21.4952C116.681 21.5739 116.536 21.5362 116.496 21.42L116.228 20.6575C116.2 20.5788 116.117 20.531 116.034 20.5481L113.771 20.9977C113.549 21.0422 113.5 21.3328 113.696 21.4456L114.642 21.9859C114.711 22.0252 114.752 22.097 114.752 22.1757V30.7138C114.752 30.7582 114.725 30.7993 114.681 30.8147C114.262 30.9702 113.52 31.1805 113.52 31.7276C113.52 31.8268 113.599 31.9054 113.7 31.9072C115.26 31.9225 116.815 31.9191 118.361 31.9003C118.665 31.8969 118.775 31.808 118.792 31.5105C118.797 31.4011 118.747 31.3344 118.638 31.3088L116.782 30.8813C116.742 30.8728 116.714 30.8369 116.714 30.7976L116.704 27.7697Z" stroke="#255185" stroke-width="2"/>
<path d="M134.29 21.4738C134.624 21.3507 135.137 21.1986 135.019 20.7113C135.007 20.66 134.976 20.6344 134.924 20.6344C133.698 20.6122 132.472 20.6019 131.246 20.607C131.111 20.6087 130.978 20.6258 130.846 20.6617C130.794 20.6771 130.751 20.7147 130.732 20.7643C130.682 20.896 130.671 21.0293 130.704 21.1644C130.718 21.2225 130.754 21.2567 130.813 21.2687C131.324 21.3696 131.721 21.4602 132.053 21.8859C132.711 22.7287 133.372 23.5562 134.035 24.37C134.091 24.4367 134.087 24.5342 134.03 24.5974C133.436 25.2625 132.849 25.9481 132.269 26.6542C131.821 27.1996 131.596 27.2269 130.964 27.4834C130.73 27.5774 130.637 27.7774 130.682 28.0835C130.69 28.1365 130.721 28.1638 130.775 28.1638L133.833 28.1536C133.939 28.1536 134.03 28.0852 134.061 27.986C134.091 27.8851 134.1 27.7877 134.087 27.6936C134.079 27.6253 134.041 27.5791 133.977 27.5535L133.322 27.3021C133.249 27.2748 133.225 27.1876 133.272 27.126L134.614 25.4129C134.661 25.3531 134.754 25.3531 134.801 25.4129L136.108 27.0884C136.177 27.1773 136.134 27.3073 136.023 27.3363C135.67 27.4304 135.237 27.574 135.279 28.0339C135.286 28.1057 135.346 28.1604 135.419 28.1604C136.75 28.1621 138.072 28.1621 139.384 28.1604C139.543 28.1604 139.651 28.0903 139.708 27.9518C139.784 27.762 139.663 27.5517 139.458 27.5227C138.877 27.4355 138.508 27.1927 138.122 26.7123C137.538 25.9857 136.929 25.2317 136.29 24.4504C136.217 24.3598 136.219 24.2726 136.295 24.1854C136.969 23.4212 137.651 22.621 138.345 21.785C138.671 21.3918 139.692 21.5132 139.581 20.7284C139.573 20.6703 139.54 20.6395 139.481 20.6378C138.496 20.6002 137.512 20.5951 136.527 20.6241C136.363 20.6293 136.254 20.7336 136.202 20.9387C136.169 21.0721 136.24 21.2071 136.37 21.2567L137.021 21.5063C137.09 21.5337 137.116 21.6175 137.071 21.6756L135.699 23.4571C135.653 23.5169 135.563 23.5152 135.519 23.4536L134.233 21.6585C134.186 21.5935 134.214 21.5012 134.29 21.4738Z" stroke="#255185" stroke-width="2"/>
<path d="M85.2151 23.8009L88.2452 23.4863C88.2746 23.4846 88.2954 23.4573 88.2937 23.4282L88.2885 23.394C88.1638 22.2246 87.4002 21.3475 86.5812 21.4313L86.4098 21.4501C85.5908 21.5339 85.0264 22.5512 85.151 23.7189L85.1545 23.7548C85.158 23.7838 85.1857 23.8043 85.2151 23.8009Z" stroke="#246588" stroke-width="2"/>
<path d="M109.911 24.5489C109.388 24.5882 107.566 24.8532 107.452 25.438C107.355 25.9355 107.469 26.4244 107.793 26.9014C108.202 27.5032 109.343 27.0912 109.862 26.857C109.933 26.8262 109.978 26.7561 109.977 26.6809L109.966 24.5985C109.966 24.5694 109.94 24.5472 109.911 24.5489Z" stroke="#255185" stroke-width="2"/>
<path d="M125.105 23.7995L128.083 23.49C128.128 23.4849 128.161 23.4456 128.156 23.4011L128.152 23.3738C128.029 22.2129 127.245 21.3427 126.402 21.4298L126.315 21.4384C125.472 21.5256 124.889 22.5394 125.011 23.7003L125.015 23.7277C125.02 23.7721 125.06 23.8046 125.105 23.7995Z" stroke="#255185" stroke-width="2"/>
<path d="M67.0977 24.2594C66.987 22.161 65.1551 20.5505 63.009 20.6617C60.8628 20.7727 59.2127 22.5645 59.3236 24.6616C59.4343 26.76 61.2662 28.3705 63.4123 28.2593C65.5586 28.1483 67.2087 26.3565 67.0977 24.2594Z" stroke="#255185" stroke-width="2"/>
<path d="M116.778 26.5585C117.318 27.0185 119.2 27.4852 119.626 26.8082C119.798 26.5363 119.914 26.2183 119.978 25.8507C120.163 24.789 120.038 23.7701 119.604 22.7904C119.377 22.2758 119.155 21.9595 118.941 21.8415C118.397 21.5406 117.348 21.845 116.8 22.0399C116.74 22.0621 116.698 22.1202 116.698 22.1835L116.712 26.4166C116.712 26.4714 116.736 26.5226 116.778 26.5585Z" stroke="#255185" stroke-width="2"/>
<path d="M62.9998 24.2049C62.9617 24.2356 62.9201 24.2493 62.8734 24.2442C62.8197 24.2391 62.7712 24.2544 62.7297 24.2903C62.6275 24.3775 62.6102 24.4818 62.6795 24.5998C62.7314 24.6887 62.863 24.6887 62.9149 24.5998L63.0846 24.3092C63.1141 24.2596 63.1556 24.2459 63.2093 24.2715C63.3876 24.3536 63.5054 24.4904 63.5625 24.6819C63.5833 24.7503 63.6803 24.7554 63.7062 24.6887C63.7495 24.5793 63.7651 24.4682 63.7495 24.3536C63.7409 24.2869 63.7028 24.2493 63.6352 24.2425L63.4153 24.222C63.3876 24.2185 63.3651 24.198 63.3617 24.1707L63.3547 24.1262C63.3495 24.0852 63.3755 24.0459 63.4171 24.039C64.6949 23.7774 64.0508 21.8028 62.8145 22.3721C62.0215 22.7363 62.1825 23.8116 62.9703 24.0561C63.0361 24.0766 63.0535 24.1621 62.9998 24.2049Z" stroke="#255185" stroke-width="2"/>
<path d="M61.6004 26.1638L64.8902 26.1364C64.9491 26.1364 64.9855 26.1074 64.9976 26.0509C65.15 25.3243 65.1707 24.4917 64.305 24.2506C64.2046 24.2216 64.0972 24.2694 64.0522 24.3635L63.3163 25.8919C63.2644 25.9996 63.1103 25.9996 63.0566 25.8936C63.0098 25.8013 62.9804 25.7022 62.9648 25.5944C62.9544 25.5209 62.9873 25.485 63.0618 25.485H63.28C63.3458 25.485 63.3804 25.4525 63.3856 25.3893C63.396 25.2594 63.4375 25.1431 63.5102 25.0405C63.5362 25.0046 63.538 24.967 63.5189 24.9243C63.486 24.8507 63.4462 24.849 63.4029 24.9157C63.3579 24.9824 63.2973 25.0268 63.2194 25.0508C63.1588 25.0696 63.1103 25.0559 63.0705 25.0063C62.9977 24.914 62.906 24.8849 62.7951 24.9191C62.7449 24.9345 62.6895 24.9123 62.6653 24.8644L62.4644 24.4592C62.3813 24.2917 62.1874 24.2096 62.0091 24.266C61.2368 24.5054 61.3494 25.3739 61.403 25.986C61.4117 26.0868 61.4983 26.1655 61.6004 26.1638Z" stroke="#255185" stroke-width="2"/>
<path d="M63.9508 23.1775C63.9508 22.7758 63.6201 22.4492 63.2132 22.4492C62.8063 22.4492 62.4756 22.7758 62.4756 23.1775C62.4756 23.5793 62.8063 23.9059 63.2132 23.9059C63.6201 23.9059 63.9508 23.5793 63.9508 23.1775Z" stroke="#255185" stroke-width="2"/>
<path d="M62.6894 25.9461C62.7725 25.9409 62.8297 25.8589 62.802 25.7802C62.6946 25.4656 62.4383 24.6501 62.1821 24.474C62.028 24.3697 61.8791 24.4056 61.7388 24.5852C61.512 24.8707 61.4635 25.2913 61.5934 25.8469C61.6194 25.958 61.6903 26.0093 61.8063 26.0025L62.6894 25.9461Z" stroke="#255185" stroke-width="2"/>
<path d="M64.1483 24.5489L63.6028 25.6825C63.5544 25.785 63.5976 25.9064 63.7015 25.9543L63.7171 25.9611C64.1742 26.1766 64.7041 26.0176 64.9014 25.6072L64.9084 25.5919C65.1058 25.1815 64.8963 24.6755 64.4391 24.46L64.4236 24.4532C64.3197 24.4053 64.1967 24.4481 64.1483 24.5489Z" stroke="#255185" stroke-width="2"/>
<path d="M62.9736 25.4555C63.0224 25.4419 63.0293 25.3205 62.9892 25.1872C62.9497 25.0538 62.877 24.9563 62.8288 24.97C62.78 24.9837 62.7731 25.1051 62.8132 25.2384C62.8527 25.3718 62.9254 25.4692 62.9736 25.4555Z" stroke="#255185" stroke-width="2"/>
<path d="M0 0.5H187V53.5H0V0.5ZM50.0225 23.3379L54.6715 23.143C54.6975 23.1413 54.72 23.1635 54.72 23.1891L54.7131 26.8393C54.7131 26.9094 54.6663 26.9709 54.5988 26.9932C54.1919 27.118 53.7781 27.2547 53.3573 27.4052C53.0699 27.5061 52.9747 27.7369 53.0734 28.0942C53.0855 28.1369 53.1132 28.1592 53.1599 28.1592L58.0462 28.1523C58.0999 28.1523 58.1501 28.1198 58.1691 28.0703C58.2297 27.9215 58.2626 27.7676 58.2695 27.6086C58.2713 27.5454 58.2418 27.5026 58.1812 27.4804L56.945 27.0581C56.8359 27.0222 56.7822 26.947 56.7822 26.8325L56.7805 18.4926C56.7805 18.4174 56.8307 18.3507 56.9034 18.3285C57.3778 18.1798 58.4652 18.002 58.3215 17.3027C58.3059 17.2206 58.254 17.1796 58.1691 17.1796C56.6887 17.1728 55.2446 17.1694 53.837 17.1676C53.3712 17.1676 53.082 17.2942 53.205 17.819C53.2188 17.8755 53.2534 17.9114 53.3071 17.9285L54.5936 18.3388C54.6663 18.3627 54.7148 18.4294 54.7148 18.5046L54.7166 21.9958C54.7166 22.0436 54.6785 22.0813 54.6317 22.0813L49.9948 22.083C49.9706 22.083 49.9515 22.0642 49.9515 22.0402L49.9411 18.5371C49.9411 18.4448 50.0035 18.3661 50.0918 18.3422C50.6545 18.1986 51.5653 18.0618 51.5237 17.3078C51.5185 17.2343 51.4562 17.1762 51.3817 17.1745C49.9654 17.1694 48.5629 17.1694 47.1725 17.1711C46.6773 17.1728 46.3812 17.1078 46.3951 17.7079C46.3968 17.8036 46.4435 17.8669 46.5336 17.896L47.7421 18.3012C47.8114 18.3251 47.8564 18.3884 47.8564 18.4602L47.8581 26.8273C47.8581 26.9025 47.8114 26.9692 47.7404 26.9932C47.2314 27.1744 46.1803 27.3368 46.3396 28.0703C46.3518 28.1267 46.3864 28.1557 46.4453 28.1557L51.2449 28.154C51.406 28.154 51.4995 28.0754 51.5289 27.9198C51.5843 27.6138 51.5341 27.4394 51.3765 27.3949C50.9211 27.2667 50.4744 27.1334 50.0364 26.9915C49.9809 26.9744 49.9446 26.9231 49.9429 26.8666L49.9359 23.4268C49.9359 23.3789 49.974 23.3396 50.0225 23.3379ZM85.1664 24.5193C85.1577 24.456 85.2079 24.3996 85.272 24.3996H89.5661C89.6353 24.3996 89.6994 24.3654 89.734 24.3073C89.7894 24.2201 89.8362 24.1055 89.8725 23.967C90.3002 22.3497 89.5037 20.6485 87.6995 20.4536C82.4982 19.8912 81.6065 27.8121 86.2624 28.3045C87.5697 28.4413 88.7454 28.0121 89.6509 27.0923C89.7496 26.9915 89.7842 26.8906 89.7513 26.7897C89.7288 26.7179 89.6509 26.6769 89.5782 26.6974C88.3038 27.0598 86.8996 27.5249 85.923 26.2785C85.5058 25.7451 85.253 25.1587 85.1664 24.5193ZM94.951 21.2384C95.0878 21.7359 95.0237 22.4437 95.5293 22.6796C96.3362 23.0558 97.5759 21.5718 96.5336 20.9341C94.9822 19.9852 91.2543 20.2724 91.3305 22.772C91.4101 25.3587 95.2332 25.0099 95.3181 26.3486C95.3735 27.1949 93.4879 27.3898 92.8299 27.4291C92.7156 27.4377 92.6464 27.3847 92.6221 27.2735L92.3451 25.9947C92.3226 25.8955 92.2429 25.8169 92.1425 25.7964L91.4898 25.6647C91.4257 25.6511 91.3859 25.6767 91.3737 25.74L91.0223 27.4667C91.0101 27.5232 91.0292 27.5659 91.0777 27.5984C91.7477 28.0344 92.4698 28.2788 93.2437 28.3318C94.7242 28.4327 96.9145 28.0155 97.0928 26.1879C97.2885 24.1859 95.3856 23.8251 93.9346 23.3225C93.2316 23.0814 92.3988 22.3223 93.3061 21.7615C93.7805 21.4692 94.2913 21.2709 94.8402 21.1683C94.899 21.158 94.9354 21.182 94.951 21.2384ZM109.857 23.9927C108.536 23.8439 105.949 23.8303 105.555 25.5605C105.31 26.6324 105.743 28.0788 107.006 28.272C108.264 28.4652 109.305 28.1164 110.124 27.224C110.195 27.147 110.32 27.1539 110.382 27.2376L111.133 28.2754C111.161 28.313 111.199 28.3318 111.246 28.3301C111.932 28.3062 112.503 28.1831 112.962 27.9608C113.492 27.7027 113.476 27.4838 112.915 27.3009C112.612 27.2017 111.918 26.7965 111.92 26.3589C111.921 25.3809 111.918 24.403 111.911 23.4251C111.904 22.4591 111.816 21.8043 111.644 21.4641C110.907 19.9818 108.844 20.4177 107.523 20.7597C106.995 20.8965 105.965 21.2418 105.794 21.7103C105.556 22.3565 106.839 23.2712 107.43 22.8438C107.766 22.601 107.809 21.8145 107.868 21.4282C107.88 21.3375 107.932 21.2845 108.024 21.2675C109.856 20.9409 110.044 22.6164 109.958 23.9106C109.953 23.9722 109.92 23.9995 109.857 23.9927ZM125.029 24.5244C125.018 24.4406 125.056 24.3996 125.141 24.3996H129.378C129.518 24.3979 129.641 24.3107 129.685 24.1807C130.152 22.7788 129.709 21.1546 128.218 20.6332C126.357 19.9818 124.326 20.8605 123.543 22.6352C122.783 24.3603 123.011 27.1966 125.029 28.0138C126.684 28.6857 128.173 28.3831 129.494 27.106C129.57 27.0325 129.615 26.9658 129.631 26.9094C129.662 26.7948 129.555 26.6888 129.439 26.7179C128.872 26.8598 128.32 26.9726 127.78 27.0564C126.17 27.3077 125.193 25.8887 125.029 24.5244ZM67.2525 24.4492C67.2525 22.2488 65.4448 20.4639 63.2164 20.4639C60.988 20.4639 59.1803 22.2488 59.1803 24.4492C59.1803 26.6495 60.988 28.4344 63.2164 28.4344C65.4448 28.4344 67.2525 26.6495 67.2525 24.4492ZM71.4808 22.1103L73.4269 21.7256C73.5655 21.6983 73.7092 21.7393 73.8113 21.8385C74.2909 22.3035 74.3844 23.2404 74.3948 23.8798C74.4104 24.9074 74.4156 25.9332 74.4087 26.9538C74.4087 27.0256 74.3706 27.0923 74.3065 27.1299C73.9481 27.3385 73.4217 27.5403 73.5862 28.0908C73.6001 28.1369 73.6313 28.1609 73.6797 28.1609L77.3176 28.1557C77.3903 28.1557 77.4561 28.1079 77.4769 28.0395C77.5184 27.9095 77.5357 27.7762 77.5305 27.6377C77.5288 27.5745 77.4959 27.5334 77.4353 27.5112L76.4778 27.1658C76.4051 27.1385 76.3583 27.0718 76.3583 26.9966C76.3583 25.4955 76.4969 23.7738 76.2562 22.2847C76.2441 22.2095 76.2925 22.1377 76.3687 22.1206C77.0942 21.9582 77.7539 21.8334 78.3495 21.7479C79.7105 21.553 79.3694 26.2033 79.3677 26.9367C79.3677 27.0154 79.3278 27.0889 79.2603 27.1316C78.8932 27.3642 78.469 27.5078 78.4811 28.0326C78.4829 28.1045 78.54 28.1609 78.6127 28.1609L82.3735 28.1557C82.4393 28.1557 82.486 28.1267 82.5138 28.0668C82.5761 27.9352 82.6038 27.795 82.5951 27.6463C82.5917 27.5898 82.5622 27.5522 82.5086 27.5334L81.461 27.1675C81.3658 27.1351 81.319 27.0684 81.3208 26.9692C81.3398 25.7058 81.3294 24.4184 81.2896 23.1105C81.1805 19.5868 78.1885 20.1339 76.2544 21.6812C76.1852 21.7359 76.0813 21.7103 76.0484 21.6282C75.2225 19.5578 72.5889 20.705 71.4323 21.6367C71.2886 21.7547 71.1916 21.7239 71.1414 21.5444L70.8851 20.6229C70.8713 20.5699 70.8176 20.5374 70.7622 20.5477L68.4645 20.9819C68.3901 20.9956 68.326 21.0435 68.2879 21.1102C68.2013 21.2657 68.2498 21.394 68.4316 21.4965C68.7225 21.6624 69.003 21.8145 69.2714 21.9513C69.3787 22.006 69.4324 22.0932 69.4324 22.2129V26.8752C69.4324 26.9778 69.3701 27.0701 69.2748 27.1077C68.8645 27.2718 68.0576 27.4496 68.2533 28.0771C68.2689 28.1233 68.3 28.1472 68.3502 28.1472C69.6194 28.1575 70.8903 28.1711 72.1595 28.1882C72.3188 28.1899 72.4487 28.1318 72.5491 28.0121C72.6841 27.8497 72.6201 27.6052 72.4227 27.5283L71.4877 27.1658C71.4236 27.1402 71.3821 27.0786 71.3821 27.0103L71.3734 22.2385C71.3734 22.1667 71.4098 22.124 71.4808 22.1103ZM102.4 21.1888C102.512 21.6162 102.509 22.3873 102.935 22.6027C103.83 23.0575 105.62 21.2025 103.565 20.6366C100.812 19.8775 98.194 21.5735 98.1923 24.4663C98.1889 26.5179 99.2935 28.2019 101.529 28.3353C102.789 28.4105 103.768 27.9489 104.569 27.0239C104.684 26.8923 104.658 26.8051 104.491 26.7624C104.467 26.7555 104.44 26.7555 104.415 26.7624C103.262 27.0445 101.92 27.5112 101.028 26.4085C100.178 25.3536 99.9428 24.1688 100.326 22.854C100.615 21.8658 101.262 21.2828 102.272 21.1067C102.339 21.0948 102.383 21.1221 102.4 21.1888ZM116.704 27.7694C116.702 27.6685 116.742 27.6497 116.82 27.7164C117.985 28.6909 119.664 28.5165 120.702 27.4428C121.389 26.7316 121.798 25.8853 121.926 24.9039C122.123 23.4045 121.832 21.2555 120.151 20.6246C118.989 20.1886 117.658 20.7392 116.775 21.4948C116.681 21.5735 116.536 21.5359 116.496 21.4196L116.227 20.6571C116.2 20.5785 116.117 20.5306 116.034 20.5477L113.77 20.9973C113.549 21.0418 113.5 21.3324 113.696 21.4453L114.641 21.9855C114.711 22.0248 114.752 22.0966 114.752 22.1753V30.7134C114.752 30.7579 114.725 30.7989 114.681 30.8143C114.262 30.9699 113.519 31.1802 113.519 31.7273C113.519 31.8264 113.599 31.9051 113.699 31.9068C115.26 31.9222 116.814 31.9187 118.361 31.8999C118.665 31.8965 118.774 31.8076 118.792 31.5101C118.797 31.4007 118.747 31.334 118.638 31.3084L116.782 30.881C116.742 30.8724 116.714 30.8365 116.714 30.7972L116.704 27.7694ZM134.29 21.4726C134.624 21.3495 135.137 21.1974 135.019 20.7101C135.007 20.6588 134.976 20.6332 134.924 20.6332C133.698 20.6109 132.472 20.6007 131.246 20.6058C131.111 20.6075 130.978 20.6246 130.846 20.6605C130.794 20.6759 130.751 20.7135 130.732 20.7631C130.682 20.8947 130.671 21.0281 130.704 21.1632C130.718 21.2213 130.755 21.2555 130.813 21.2675C131.324 21.3683 131.721 21.4589 132.053 21.8846C132.711 22.7275 133.373 23.555 134.036 24.3688C134.091 24.4355 134.088 24.5329 134.031 24.5962C133.437 25.2613 132.85 25.9468 132.27 26.6529C131.821 27.1983 131.596 27.2257 130.964 27.4821C130.73 27.5762 130.637 27.7762 130.682 28.0822C130.69 28.1352 130.722 28.1626 130.775 28.1626L133.833 28.1523C133.939 28.1523 134.031 28.0839 134.062 27.9848C134.091 27.8839 134.1 27.7865 134.088 27.6924C134.079 27.624 134.041 27.5779 133.977 27.5522L133.322 27.3009C133.25 27.2735 133.225 27.1864 133.272 27.1248L134.614 25.4117C134.661 25.3519 134.754 25.3519 134.801 25.4117L136.108 27.0872C136.178 27.1761 136.134 27.306 136.023 27.3351C135.67 27.4291 135.237 27.5727 135.279 28.0326C135.286 28.1045 135.346 28.1592 135.419 28.1592C136.751 28.1609 138.072 28.1609 139.384 28.1592C139.544 28.1592 139.651 28.0891 139.708 27.9506C139.784 27.7608 139.663 27.5505 139.459 27.5215C138.877 27.4343 138.508 27.1915 138.122 26.7111C137.539 25.9845 136.929 25.2305 136.29 24.4492C136.217 24.3585 136.219 24.2714 136.295 24.1842C136.969 23.4199 137.651 22.6198 138.345 21.7838C138.671 21.3905 139.692 21.5119 139.582 20.7272C139.573 20.6691 139.54 20.6383 139.481 20.6366C138.496 20.599 137.513 20.5938 136.527 20.6229C136.363 20.628 136.254 20.7323 136.202 20.9375C136.169 21.0708 136.24 21.2059 136.37 21.2555L137.021 21.5051C137.09 21.5325 137.116 21.6162 137.071 21.6744L135.7 23.4558C135.653 23.5157 135.563 23.514 135.52 23.4524L134.233 21.6573C134.186 21.5923 134.214 21.5 134.29 21.4726Z" fill="#000018"/>
<path d="M49.9358 23.4271L49.9427 26.867C49.9444 26.9234 49.9808 26.9747 50.0362 26.9918C50.4743 27.1337 50.921 27.267 51.3764 27.3953C51.5339 27.4397 51.5842 27.6141 51.5288 27.9201C51.4993 28.0757 51.4058 28.1544 51.2448 28.1544L46.4451 28.1561C46.3863 28.1561 46.3516 28.127 46.3395 28.0706C46.1802 27.3371 47.2312 27.1747 47.7403 26.9935C47.8113 26.9696 47.858 26.9029 47.858 26.8276L47.8563 18.4605C47.8563 18.3887 47.8113 18.3254 47.742 18.3015L46.5334 17.8963C46.4434 17.8672 46.3966 17.804 46.3949 17.7082C46.3811 17.1081 46.6771 17.1731 47.1723 17.1714C48.5627 17.1697 49.9652 17.1697 51.3816 17.1748C51.456 17.1765 51.5184 17.2346 51.5236 17.3082C51.5651 18.0621 50.6544 18.1989 50.0916 18.3425C50.0033 18.3665 49.941 18.4451 49.941 18.5374L49.9514 22.0405C49.9514 22.0645 49.9704 22.0833 49.9947 22.0833L54.6316 22.0816C54.6783 22.0816 54.7164 22.044 54.7164 21.9961L54.7147 18.5049C54.7147 18.4297 54.6662 18.363 54.5935 18.3391L53.307 17.9288C53.2533 17.9117 53.2187 17.8758 53.2048 17.8194C53.0819 17.2945 53.3711 17.168 53.8368 17.168C55.2445 17.1697 56.6886 17.1731 58.169 17.1799C58.2538 17.1799 58.3058 17.221 58.3214 17.303C58.4651 18.0023 57.3777 18.1801 56.9033 18.3288C56.8306 18.3511 56.7803 18.4177 56.7803 18.493L56.7821 26.8328C56.7821 26.9473 56.8357 27.0225 56.9448 27.0585L58.1811 27.4807C58.2417 27.503 58.2711 27.5457 58.2694 27.609C58.2625 27.768 58.2296 27.9218 58.169 28.0706C58.1499 28.1202 58.0997 28.1526 58.046 28.1526L53.1598 28.1595C53.1131 28.1595 53.0854 28.1373 53.0732 28.0945C52.9745 27.7372 53.0698 27.5064 53.3572 27.4055C53.778 27.2551 54.1918 27.1183 54.5987 26.9935C54.6662 26.9713 54.7129 26.9097 54.7129 26.8396L54.7199 23.1895C54.7199 23.1638 54.6974 23.1416 54.6714 23.1433L50.0224 23.3382C49.9739 23.3399 49.9358 23.3792 49.9358 23.4271Z" fill="#44DAF8"/>
<path d="M85.1666 24.52C85.2532 25.1594 85.506 25.7458 85.9233 26.2792C86.8998 27.5256 88.3041 27.0606 89.5784 26.6981C89.6512 26.6776 89.7291 26.7186 89.7516 26.7904C89.7845 26.8913 89.7499 26.9922 89.6512 27.093C88.7456 28.0128 87.5699 28.442 86.2627 28.3052C81.6067 27.8128 82.4984 19.8919 87.6998 20.4544C89.504 20.6493 90.3005 22.3504 89.8728 23.9677C89.8364 24.1062 89.7897 24.2208 89.7343 24.308C89.6996 24.3661 89.6356 24.4003 89.5663 24.4003H85.2723C85.2082 24.4003 85.158 24.4567 85.1666 24.52ZM85.2151 23.8019L88.2452 23.4873C88.2746 23.4856 88.2954 23.4583 88.2937 23.4292L88.2885 23.395C88.1638 22.2256 87.4002 21.3485 86.5813 21.4323L86.4098 21.4511C85.5908 21.5349 85.0264 22.5521 85.151 23.7198L85.1545 23.7557C85.158 23.7848 85.1857 23.8053 85.2151 23.8019Z" fill="#47CAF7"/>
<path d="M94.84 21.1686C94.2911 21.2712 93.7804 21.4695 93.3059 21.7619C92.3986 22.3227 93.2315 23.0818 93.9345 23.3228C95.3854 23.8255 97.2883 24.1862 97.0927 26.1882C96.9143 28.0159 94.724 28.433 93.2436 28.3322C92.4696 28.2792 91.7476 28.0347 91.0775 27.5987C91.029 27.5662 91.01 27.5235 91.0221 27.4671L91.3736 25.7403C91.3857 25.6771 91.4255 25.6514 91.4896 25.6651L92.1424 25.7967C92.2428 25.8172 92.3224 25.8959 92.345 25.995L92.622 27.2739C92.6462 27.385 92.7155 27.438 92.8298 27.4295C93.4877 27.3901 95.3733 27.1952 95.3179 26.349C95.2331 25.0103 91.4099 25.3591 91.3303 22.7723C91.2541 20.2728 94.982 19.9855 96.5334 20.9344C97.5758 21.5721 96.336 23.0561 95.5291 22.68C95.0236 22.444 95.0876 21.7362 94.9508 21.2387C94.9353 21.1823 94.8989 21.1584 94.84 21.1686Z" fill="#47CAF7"/>
<path d="M109.958 23.9105C110.044 22.6162 109.855 20.9408 108.024 21.2673C107.932 21.2844 107.88 21.3374 107.868 21.428C107.809 21.8144 107.766 22.6009 107.43 22.8436C106.839 23.271 105.556 22.3564 105.793 21.7101C105.965 21.2417 106.995 20.8963 107.523 20.7595C108.844 20.4176 110.906 19.9816 111.644 21.4639C111.815 21.8041 111.904 22.4589 111.911 23.4249C111.918 24.4029 111.921 25.3808 111.919 26.3587C111.918 26.7964 112.612 27.2016 112.915 27.3008C113.476 27.4837 113.492 27.7025 112.962 27.9607C112.503 28.1829 111.931 28.306 111.246 28.33C111.199 28.3317 111.161 28.3129 111.133 28.2753L110.382 27.2375C110.319 27.1537 110.195 27.1469 110.124 27.2238C109.305 28.1163 108.264 28.465 107.005 28.2719C105.743 28.0787 105.31 26.6323 105.554 25.5603C105.949 23.8301 108.536 23.8438 109.857 23.9925C109.919 23.9994 109.952 23.972 109.958 23.9105ZM109.911 24.5482C109.388 24.5875 107.566 24.8525 107.452 25.4372C107.355 25.9347 107.469 26.4237 107.793 26.9007C108.202 27.5025 109.343 27.0905 109.862 26.8562C109.933 26.8255 109.978 26.7554 109.977 26.6801L109.966 24.5978C109.966 24.5687 109.94 24.5465 109.911 24.5482Z" fill="#4AA2F2"/>
<path d="M125.028 24.5257C125.193 25.89 126.17 27.309 127.78 27.0577C128.32 26.9739 128.872 26.8611 129.439 26.7192C129.555 26.6901 129.662 26.7961 129.631 26.9107C129.615 26.9671 129.57 27.0338 129.494 27.1073C128.173 28.3844 126.684 28.687 125.028 28.0151C123.011 27.1979 122.783 24.3616 123.543 22.6365C124.325 20.8618 126.357 19.9831 128.218 20.6345C129.709 21.1559 130.152 22.7801 129.684 24.182C129.641 24.312 129.518 24.3992 129.378 24.4009H125.141C125.056 24.4009 125.018 24.4419 125.028 24.5257ZM125.105 23.8008L128.083 23.4913C128.128 23.4862 128.161 23.4469 128.156 23.4024L128.152 23.3751C128.029 22.2142 127.245 21.344 126.402 21.4312L126.315 21.4397C125.472 21.5269 124.888 22.5407 125.011 23.7016L125.015 23.729C125.02 23.7734 125.06 23.8059 125.105 23.8008Z" fill="#4AA2F2"/>
<path d="M67.2528 24.4501C67.2528 26.6505 65.4452 28.4354 63.2167 28.4354C60.9883 28.4354 59.1807 26.6505 59.1807 24.4501C59.1807 22.2497 60.9883 20.4648 63.2167 20.4648C65.4452 20.4648 67.2528 22.2497 67.2528 24.4501ZM67.0986 24.2609C66.9879 22.1626 65.156 20.552 63.0099 20.6633C60.8637 20.7743 59.2136 22.566 59.3245 24.6632C59.4352 26.7616 61.2671 28.3721 63.4132 28.2609C65.5594 28.1498 67.2095 26.3581 67.0986 24.2609Z" fill="#4AA2F2"/>
<path d="M71.3729 22.2397L71.3815 27.0114C71.3815 27.0798 71.4231 27.1414 71.4872 27.167L72.4222 27.5295C72.6195 27.6064 72.6836 27.8509 72.5486 28.0133C72.4481 28.133 72.3183 28.1911 72.159 28.1894C70.8898 28.1723 69.6189 28.1586 68.3497 28.1484C68.2995 28.1484 68.2683 28.1244 68.2527 28.0783C68.0571 27.4508 68.864 27.273 69.2743 27.1089C69.3696 27.0713 69.4319 26.9789 69.4319 26.8764V22.2141C69.4319 22.0944 69.3782 22.0072 69.2709 21.9525C69.0025 21.8157 68.722 21.6636 68.4311 21.4977C68.2493 21.3951 68.2008 21.2669 68.2874 21.1113C68.3255 21.0447 68.3895 20.9968 68.464 20.9831L70.7617 20.5488C70.8171 20.5386 70.8708 20.5711 70.8846 20.6241L71.1409 21.5456C71.1911 21.7251 71.288 21.7559 71.4317 21.6379C72.5884 20.7061 75.222 19.5589 76.0479 21.6294C76.0808 21.7114 76.1847 21.7371 76.2539 21.6824C78.188 20.1351 81.18 19.588 81.2891 23.1117C81.3289 24.4196 81.3393 25.7069 81.3202 26.9704C81.3185 27.0696 81.3653 27.1362 81.4605 27.1687L82.508 27.5346C82.5617 27.5534 82.5911 27.591 82.5946 27.6474C82.6033 27.7962 82.5756 27.9364 82.5132 28.068C82.4855 28.1279 82.4388 28.1569 82.373 28.1569L78.6122 28.162C78.5395 28.162 78.4823 28.1056 78.4806 28.0338C78.4685 27.5089 78.8927 27.3653 79.2598 27.1328C79.3273 27.0901 79.3671 27.0166 79.3671 26.9379C79.3689 26.2045 79.71 21.5541 78.349 21.749C77.7534 21.8345 77.0937 21.9593 76.3682 22.1218C76.292 22.1388 76.2435 22.2107 76.2557 22.2859C76.4963 23.775 76.3578 25.4967 76.3578 26.9978C76.3578 27.073 76.4046 27.1397 76.4773 27.167L77.4348 27.5124C77.4954 27.5346 77.5283 27.5756 77.53 27.6389C77.5352 27.7774 77.5179 27.9107 77.4763 28.0407C77.4556 28.109 77.3898 28.1569 77.3171 28.1569L73.6792 28.162C73.6307 28.162 73.5996 28.1381 73.5857 28.0919C73.4212 27.5414 73.9476 27.3397 74.306 27.1311C74.3701 27.0935 74.4082 27.0268 74.4082 26.955C74.4151 25.9343 74.4099 24.9085 74.3943 23.881C74.3839 23.2416 74.2904 22.3047 73.8108 21.8397C73.7086 21.7405 73.5649 21.6995 73.4264 21.7268L71.4802 22.1115C71.4092 22.1252 71.3729 22.1679 71.3729 22.2397Z" fill="#47CAF7"/>
<path d="M102.272 21.1062C101.262 21.2823 100.614 21.8653 100.325 22.8535C99.9427 24.1683 100.178 25.3531 101.028 26.4079C101.92 27.5107 103.262 27.0439 104.415 26.7618C104.439 26.755 104.467 26.755 104.491 26.7618C104.657 26.8046 104.683 26.8918 104.569 27.0234C103.768 27.9483 102.789 28.41 101.529 28.3347C99.2934 28.2014 98.1887 26.5173 98.1921 24.4657C98.1939 21.573 100.812 19.877 103.565 20.6361C105.62 21.202 103.83 23.057 102.935 22.6022C102.509 22.3868 102.512 21.6157 102.4 21.1883C102.382 21.1216 102.339 21.0943 102.272 21.1062Z" fill="#4AA2F2"/>
<path d="M116.704 27.7697L116.714 30.7976C116.714 30.8369 116.742 30.8728 116.782 30.8813L118.638 31.3088C118.747 31.3344 118.797 31.4011 118.792 31.5105C118.775 31.808 118.665 31.8969 118.361 31.9003C116.815 31.9191 115.26 31.9225 113.7 31.9072C113.599 31.9054 113.52 31.8268 113.52 31.7276C113.52 31.1805 114.262 30.9702 114.681 30.8147C114.725 30.7993 114.752 30.7582 114.752 30.7138V22.1757C114.752 22.097 114.711 22.0252 114.642 21.9859L113.696 21.4456C113.5 21.3328 113.549 21.0422 113.771 20.9977L116.034 20.5481C116.117 20.531 116.2 20.5788 116.228 20.6575L116.496 21.42C116.536 21.5362 116.681 21.5739 116.775 21.4952C117.658 20.7395 118.989 20.189 120.151 20.625C121.832 21.2559 122.123 23.4049 121.926 24.9043C121.798 25.8857 121.389 26.732 120.702 27.4432C119.665 28.5169 117.985 28.6912 116.82 27.7167C116.742 27.6501 116.702 27.6689 116.704 27.7697ZM116.778 26.5593C117.318 27.0192 119.201 27.4859 119.626 26.8089C119.798 26.5371 119.914 26.2191 119.978 25.8515C120.163 24.7898 120.039 23.7708 119.604 22.7912C119.377 22.2765 119.156 21.9602 118.941 21.8423C118.397 21.5414 117.348 21.8457 116.801 22.0406C116.74 22.0628 116.699 22.121 116.699 22.1842L116.712 26.4174C116.712 26.4721 116.737 26.5234 116.778 26.5593Z" fill="#4AA2F2"/>
<path d="M134.29 21.4738C134.214 21.5012 134.186 21.5935 134.233 21.6585L135.519 23.4536C135.563 23.5152 135.653 23.5169 135.699 23.4571L137.071 21.6756C137.116 21.6175 137.09 21.5337 137.021 21.5063L136.37 21.2567C136.24 21.2071 136.169 21.0721 136.202 20.9387C136.254 20.7336 136.363 20.6293 136.527 20.6241C137.512 20.5951 138.496 20.6002 139.481 20.6378C139.54 20.6395 139.573 20.6703 139.581 20.7284C139.692 21.5132 138.671 21.3918 138.345 21.785C137.651 22.621 136.969 23.4212 136.295 24.1854C136.219 24.2726 136.217 24.3598 136.29 24.4504C136.929 25.2317 137.538 25.9857 138.122 26.7123C138.508 27.1927 138.877 27.4355 139.458 27.5227C139.663 27.5517 139.784 27.762 139.708 27.9518C139.651 28.0903 139.543 28.1604 139.384 28.1604C138.072 28.1621 136.75 28.1621 135.419 28.1604C135.346 28.1604 135.286 28.1057 135.279 28.0339C135.237 27.574 135.67 27.4304 136.023 27.3363C136.134 27.3073 136.177 27.1773 136.108 27.0884L134.801 25.4129C134.754 25.3531 134.661 25.3531 134.614 25.4129L133.272 27.126C133.225 27.1876 133.249 27.2748 133.322 27.3021L133.977 27.5535C134.041 27.5791 134.079 27.6253 134.087 27.6936C134.1 27.7877 134.091 27.8851 134.061 27.986C134.03 28.0852 133.939 28.1536 133.833 28.1536L130.775 28.1638C130.721 28.1638 130.69 28.1365 130.682 28.0835C130.637 27.7774 130.73 27.5774 130.964 27.4834C131.596 27.2269 131.821 27.1996 132.269 26.6542C132.849 25.9481 133.436 25.2625 134.03 24.5974C134.087 24.5342 134.091 24.4367 134.035 24.37C133.372 23.5562 132.711 22.7287 132.053 21.8859C131.721 21.4602 131.324 21.3696 130.813 21.2687C130.754 21.2567 130.718 21.2225 130.704 21.1644C130.671 21.0293 130.682 20.896 130.732 20.7643C130.751 20.7147 130.794 20.6771 130.846 20.6617C130.978 20.6258 131.111 20.6087 131.246 20.607C132.472 20.6019 133.698 20.6122 134.924 20.6344C134.976 20.6344 135.007 20.66 135.019 20.7113C135.137 21.1986 134.624 21.3507 134.29 21.4738Z" fill="#4AA2F2"/>
<path d="M85.2149 23.8009C85.1854 23.8043 85.1577 23.7838 85.1543 23.7548L85.1508 23.7189C85.0261 22.5512 85.5906 21.5339 86.4096 21.4501L86.581 21.4313C87.4 21.3475 88.1636 22.2246 88.2882 23.394L88.2934 23.4282C88.2952 23.4573 88.2744 23.4846 88.245 23.4863L85.2149 23.8009Z" fill="#000018"/>
<path d="M107.452 25.438C107.567 24.8532 109.388 24.5882 109.911 24.5489C109.94 24.5472 109.966 24.5694 109.966 24.5985L109.977 26.6809C109.979 26.7561 109.934 26.8262 109.863 26.857C109.343 27.0912 108.202 27.5032 107.793 26.9014C107.47 26.4244 107.355 25.9355 107.452 25.438Z" fill="#000018"/>
<path d="M125.105 23.7995C125.06 23.8046 125.02 23.7721 125.015 23.7277L125.011 23.7003C124.889 22.5394 125.472 21.5256 126.315 21.4384L126.402 21.4298C127.245 21.3427 128.029 22.2129 128.152 23.3738L128.156 23.4011C128.161 23.4456 128.128 23.4849 128.083 23.49L125.105 23.7995Z" fill="#000018"/>
<path d="M67.0987 24.2594C67.2096 26.3565 65.5595 28.1483 63.4133 28.2593C61.2672 28.3705 59.4353 26.76 59.3246 24.6616C59.2137 22.5645 60.8638 20.7727 63.01 20.6617C65.1561 20.5505 66.988 22.161 67.0987 24.2594ZM63.0004 24.204C62.9623 24.2348 62.9208 24.2485 62.874 24.2434C62.8203 24.2382 62.7719 24.2536 62.7303 24.2895C62.6282 24.3767 62.6108 24.481 62.6801 24.599C62.732 24.6879 62.8636 24.6879 62.9156 24.599L63.0853 24.3083C63.1147 24.2588 63.1563 24.2451 63.2099 24.2707C63.3883 24.3528 63.506 24.4896 63.5632 24.681C63.5839 24.7494 63.6809 24.7546 63.7069 24.6879C63.7501 24.5785 63.7657 24.4673 63.7501 24.3528C63.7415 24.2861 63.7034 24.2485 63.6359 24.2417L63.416 24.2211C63.3883 24.2177 63.3658 24.1972 63.3623 24.1699L63.3554 24.1254C63.3502 24.0844 63.3762 24.045 63.4177 24.0382C64.6955 23.7766 64.0514 21.802 62.8151 22.3713C62.0221 22.7354 62.1832 23.8108 62.971 24.0553C63.0368 24.0758 63.0541 24.1613 63.0004 24.204ZM61.6014 26.1633L64.8912 26.136C64.9501 26.136 64.9864 26.1069 64.9986 26.0505C65.1509 25.3239 65.1717 24.4913 64.306 24.2502C64.2055 24.2211 64.0982 24.269 64.0532 24.363L63.3173 25.8915C63.2653 25.9992 63.1112 25.9992 63.0576 25.8932C63.0108 25.8009 62.9814 25.7017 62.9658 25.594C62.9554 25.5205 62.9883 25.4846 63.0627 25.4846H63.2809C63.3467 25.4846 63.3813 25.4521 63.3865 25.3889C63.3969 25.2589 63.4385 25.1427 63.5112 25.0401C63.5372 25.0042 63.5389 24.9666 63.5199 24.9238C63.487 24.8503 63.4471 24.8486 63.4039 24.9153C63.3588 24.9819 63.2982 25.0264 63.2203 25.0503C63.1597 25.0691 63.1112 25.0555 63.0714 25.0059C62.9987 24.9136 62.9069 24.8845 62.7961 24.9187C62.7459 24.9341 62.6905 24.9119 62.6662 24.864L62.4654 24.4588C62.3823 24.2912 62.1884 24.2092 62.01 24.2656C61.2378 24.5049 61.3503 25.3735 61.404 25.9855C61.4127 26.0864 61.4992 26.165 61.6014 26.1633Z" fill="#000018"/>
<path d="M119.626 26.8082C119.2 27.4852 117.318 27.0185 116.778 26.5585C116.736 26.5226 116.712 26.4714 116.712 26.4166L116.698 22.1835C116.698 22.1202 116.74 22.0621 116.8 22.0399C117.348 21.845 118.397 21.5406 118.941 21.8415C119.155 21.9595 119.377 22.2758 119.604 22.7904C120.038 23.7701 120.163 24.789 119.978 25.8507C119.914 26.2183 119.798 26.5363 119.626 26.8082Z" fill="#000018"/>
<path d="M62.9991 24.2049C63.0527 24.1621 63.0354 24.0766 62.9696 24.0561C62.1818 23.8116 62.0208 22.7363 62.8138 22.3721C64.0501 21.8028 64.6942 23.7774 63.4163 24.039C63.3748 24.0459 63.3488 24.0852 63.354 24.1262L63.3609 24.1707C63.3644 24.198 63.3869 24.2185 63.4146 24.222L63.6345 24.2425C63.702 24.2493 63.7401 24.2869 63.7488 24.3536C63.7644 24.4682 63.7488 24.5793 63.7055 24.6887C63.6795 24.7554 63.5826 24.7503 63.5618 24.6819C63.5046 24.4904 63.3869 24.3536 63.2086 24.2715C63.1549 24.2459 63.1133 24.2596 63.0839 24.3092L62.9142 24.5998C62.8623 24.6887 62.7307 24.6887 62.6787 24.5998C62.6095 24.4818 62.6268 24.3775 62.7289 24.2903C62.7705 24.2544 62.819 24.2391 62.8727 24.2442C62.9194 24.2493 62.961 24.2356 62.9991 24.2049ZM63.9496 23.1773C63.9496 22.7756 63.6189 22.449 63.212 22.449C62.8051 22.449 62.4744 22.7756 62.4744 23.1773C62.4744 23.5791 62.8051 23.9057 63.212 23.9057C63.6189 23.9057 63.9496 23.5791 63.9496 23.1773Z" fill="#4AA2F2"/>
<path d="M64.8902 26.1364L61.6004 26.1638C61.4983 26.1655 61.4117 26.0868 61.403 25.986C61.3494 25.3739 61.2368 24.5054 62.0091 24.266C62.1874 24.2096 62.3813 24.2917 62.4644 24.4592L62.6653 24.8644C62.6895 24.9123 62.7449 24.9345 62.7951 24.9191C62.906 24.8849 62.9977 24.914 63.0705 25.0063C63.1103 25.0559 63.1588 25.0696 63.2194 25.0508C63.2973 25.0268 63.3579 24.9824 63.4029 24.9157C63.4462 24.849 63.486 24.8507 63.5189 24.9243C63.538 24.967 63.5362 25.0046 63.5102 25.0405C63.4375 25.1431 63.396 25.2594 63.3856 25.3893C63.3804 25.4525 63.3458 25.485 63.28 25.485H63.0618C62.9873 25.485 62.9544 25.5209 62.9648 25.5944C62.9804 25.7022 63.0098 25.8013 63.0566 25.8936C63.1103 25.9996 63.2644 25.9996 63.3163 25.8919L64.0522 24.3635C64.0972 24.2694 64.2046 24.2216 64.305 24.2506C65.1707 24.4917 65.15 25.3243 64.9976 26.0509C64.9855 26.1074 64.9491 26.1364 64.8902 26.1364ZM62.6895 25.9449C62.7726 25.9398 62.8298 25.8577 62.8021 25.7791C62.6947 25.4645 62.4385 24.649 62.1822 24.4729C62.0281 24.3686 61.8792 24.4045 61.7389 24.584C61.5121 24.8695 61.4636 25.2901 61.5935 25.8458C61.6195 25.9569 61.6905 26.0082 61.8065 26.0014L62.6895 25.9449ZM64.1474 24.5481L63.602 25.6816C63.5535 25.7842 63.5968 25.9056 63.7007 25.9535L63.7163 25.9603C64.1734 26.1757 64.7032 26.0167 64.9006 25.6064L64.9076 25.591C65.1049 25.1807 64.8954 24.6746 64.4383 24.4592L64.4227 24.4524C64.3189 24.4045 64.1959 24.4473 64.1474 24.5481ZM62.9731 25.4542C63.022 25.4406 63.0289 25.3192 62.9888 25.1859C62.9492 25.0525 62.8765 24.955 62.8284 24.9687C62.7796 24.9824 62.7726 25.1038 62.8127 25.2371C62.8523 25.3705 62.925 25.4679 62.9731 25.4542Z" fill="#4AA2F2"/>
<path d="M63.2132 23.9059C63.6206 23.9059 63.9508 23.5798 63.9508 23.1775C63.9508 22.7753 63.6206 22.4492 63.2132 22.4492C62.8058 22.4492 62.4756 22.7753 62.4756 23.1775C62.4756 23.5798 62.8058 23.9059 63.2132 23.9059Z" fill="#000018"/>
<path d="M62.6904 25.9441L61.8073 26.0005C61.6913 26.0074 61.6203 25.9561 61.5944 25.8449C61.4645 25.2893 61.513 24.8687 61.7398 24.5832C61.8801 24.4037 62.029 24.3678 62.1831 24.4721C62.4393 24.6482 62.6956 25.4637 62.8029 25.7783C62.8306 25.8569 62.7735 25.939 62.6904 25.9441Z" fill="#000018"/>
<path d="M64.1483 24.547C64.1967 24.4461 64.3197 24.4034 64.4236 24.4513L64.4391 24.4581C64.8963 24.6735 65.1058 25.1796 64.9084 25.5899L64.9014 25.6053C64.7041 26.0156 64.1742 26.1746 63.7171 25.9592L63.7015 25.9524C63.5976 25.9045 63.5544 25.7831 63.6028 25.6805L64.1483 24.547Z" fill="#000018"/>
<path d="M62.8133 25.2353C62.8532 25.3694 62.925 25.4666 62.9737 25.4525C63.0223 25.4383 63.0293 25.3182 62.9893 25.1841C62.9494 25.0501 62.8776 24.9529 62.829 24.967C62.7803 24.9811 62.7733 25.1013 62.8133 25.2353Z" fill="#000018"/>
</g>
<defs>
<clipPath id="clip0_212_398">
<rect width="187" height="53" fill="white" transform="translate(0 0.5)"/>
</clipPath>
</defs>
</svg>
