<svg width="80" height="80" viewBox="0 0 80 80" fill="none" xmlns="http://www.w3.org/2000/svg">
<g clip-path="url(#clip0_292_440)">
<path d="M78.6667 0H1.33333C0.533333 0 0 0.533333 0 1.33333V62.6667C0 63.4667 0.533333 64 1.33333 64H30.6667V77.3333H26.6667V80H32H48H53.3333V77.3333H49.3333V64H78.6667C79.4667 64 80 63.4667 80 62.6667V1.33333C80 0.533333 79.4667 0 78.6667 0ZM46.6667 77.3333H33.3333V64H46.6667V77.3333ZM77.3333 61.3333H48H32H2.66667V50.6667H6.66667H36H44H73.3333H77.3333V61.3333ZM45.0667 21.7333L41.2 11.6C41.0667 11.2 40.5333 10.8 40 10.8C39.4667 10.8 38.9333 11.0667 38.8 11.6L34.9333 21.7333C34.8 22 34.6667 22.2667 34.6667 22.6667V48H8V8H72V48H45.3333V22.6667C45.3333 22.2667 45.2 22 45.0667 21.7333ZM37.8667 21.3333L39.8667 15.7333L42 21.3333H37.8667ZM38.6667 24V48H37.3333V24H38.6667ZM41.3333 24H42.6667V48H41.3333V24ZM77.3333 48H74.6667V6.66667C74.6667 5.86667 74.1333 5.33333 73.3333 5.33333H6.66667C5.86667 5.33333 5.33333 5.86667 5.33333 6.66667V48H2.66667V2.66667H77.3333V48Z" fill="black"/>
<path d="M68.0003 33.334V22.6673C68.0003 21.8673 67.467 21.334 66.667 21.334H50.667V22.6673V24.0007V28.0007H53.3337V24.0007H58.667V28.0007H61.3337V24.0007H65.3337V32.0007H50.667V34.6673H66.667C67.467 34.6673 68.0003 34.134 68.0003 33.334Z" fill="black"/>
<path d="M12 22.6673V33.334C12 34.134 12.5333 34.6673 13.3333 34.6673H29.3333V32.0007H14.6667V24.0007H18.6667V28.0007H21.3333V24.0007H26.6667V28.0007H29.3333V24.0007V22.6673V21.334H13.3333C12.5333 21.334 12 21.8673 12 22.6673Z" fill="black"/>
<path d="M18.6667 37.334H16V40.0007H18.6667V37.334Z" fill="black"/>
<path d="M23.9997 37.334H21.333V40.0007H23.9997V37.334Z" fill="black"/>
<path d="M29.3337 37.334H26.667V40.0007H29.3337V37.334Z" fill="black"/>
<path d="M53.3337 37.334H50.667V40.0007H53.3337V37.334Z" fill="black"/>
<path d="M58.6667 37.334H56V40.0007H58.6667V37.334Z" fill="black"/>
<path d="M63.9997 37.334H61.333V40.0007H63.9997V37.334Z" fill="black"/>
<path d="M53.3337 16H50.667V18.6667H53.3337V16Z" fill="black"/>
<path d="M58.6667 16H56V18.6667H58.6667V16Z" fill="black"/>
<path d="M63.9997 16H61.333V18.6667H63.9997V16Z" fill="black"/>
<path d="M18.6667 16H16V18.6667H18.6667V16Z" fill="black"/>
<path d="M23.9997 16H21.333V18.6667H23.9997V16Z" fill="black"/>
<path d="M29.3337 16H26.667V18.6667H29.3337V16Z" fill="black"/>
</g>
<defs>
<clipPath id="clip0_292_440">
<rect width="80" height="80" fill="white"/>
</clipPath>
</defs>
</svg>
