<svg width="80" height="80" viewBox="0 0 80 80" fill="none" xmlns="http://www.w3.org/2000/svg">
<path d="M62.4687 17.9062V75.2344C62.4687 76.8281 61.1719 78.125 59.5781 78.125H3.51562C1.92188 78.125 0.625 76.8281 0.625 75.2344V4.76562C0.625 3.17188 1.92188 1.875 3.51562 1.875H46.4219L62.4687 17.9062Z" fill="white"/>
<path d="M62.4687 17.9062V75.2344C62.4687 76.8281 61.1719 78.125 59.5781 78.125H57.9062V13.3438L62.4687 17.9062Z" fill="#EDEDED"/>
<path d="M62.9219 17.4688L46.8594 1.42188C46.7344 1.29688 46.5781 1.23438 46.4219 1.23438H3.51562C1.57812 1.23438 0 2.8125 0 4.76562V75.25C0 77.1875 1.57812 78.7656 3.51562 78.7656H59.5781C61.5156 78.7656 63.0938 77.1875 63.0938 75.25V17.9062C63.0938 17.75 63.0312 17.5938 62.9219 17.4688ZM47.0625 3.375L60.9688 17.2812H49.3281C48.0781 17.2812 47.0625 16.2656 47.0625 15.0156V3.375ZM59.5781 77.5156H3.51562C2.26562 77.5156 1.25 76.5 1.25 75.25V4.76562C1.25 3.51562 2.26562 2.5 3.51562 2.5H45.7969V15.0312C45.7969 16.9687 47.375 18.5469 49.3125 18.5469H61.8281V75.25C61.8438 76.4844 60.8281 77.5156 59.5781 77.5156Z" fill="#333333"/>
<path d="M49.3281 24.3438H7.32812C6.98437 24.3438 6.70312 24.0625 6.70312 23.7188C6.70312 23.375 6.98437 23.0938 7.32812 23.0938H49.3281C49.6719 23.0938 49.9531 23.375 49.9531 23.7188C49.9531 24.0625 49.6719 24.3438 49.3281 24.3438Z" fill="#333333"/>
<path d="M25.4375 9.15625H7.3125C6.96875 9.15625 6.6875 8.875 6.6875 8.53125C6.6875 8.1875 6.96875 7.90625 7.3125 7.90625H25.4375C25.7813 7.90625 26.0625 8.1875 26.0625 8.53125C26.0625 8.875 25.7813 9.15625 25.4375 9.15625Z" fill="#333333"/>
<path d="M37.2969 16.75H7.32812C6.98437 16.75 6.70312 16.4688 6.70312 16.125C6.70312 15.7812 6.98437 15.5 7.32812 15.5H37.3125C37.6562 15.5 37.9375 15.7812 37.9375 16.125C37.9375 16.4688 37.6406 16.75 37.2969 16.75Z" fill="#333333"/>
<path d="M42.4531 53.5C42.1875 54.3594 41.8438 55.1719 41.4375 55.9531L43.0781 59.4844L38.7188 63.8438L35.1875 62.1875C34.4063 62.5937 33.5938 62.9375 32.7344 63.2031L31.4063 66.8594H25.2344L23.9063 63.2031C23.0469 62.9375 22.2344 62.5937 21.4531 62.1875L17.9219 63.8281L13.5625 59.4688L15.2031 55.9375C14.7969 55.1562 14.4531 54.3437 14.1875 53.4844L10.5312 52.1562V46L14.1875 44.6719C14.4531 43.8125 14.7969 43 15.2031 42.2188L13.5625 38.6875L17.9219 34.3281L21.4531 35.9687C22.2344 35.5625 23.0469 35.2187 23.9063 34.9531L25.2344 31.2969H31.4063L32.7344 34.9531C33.5781 35.2187 34.4063 35.5625 35.1875 35.9687L38.7188 34.3281L43.0781 38.6875L41.4375 42.2188C41.8438 43 42.1875 43.8125 42.4531 44.6719L46.1094 46V52.1562L42.4531 53.5Z" fill="#A8B1B3"/>
<path d="M33.1875 38.8125C33.1875 47.1719 26.4062 53.9375 18.0469 53.9375C16.4844 53.9375 14.9687 53.7031 13.5469 53.25H13.5312C13.0625 53.1094 12.6094 52.9375 12.1563 52.75H12.1406C11.5781 52.5156 11.0469 52.25 10.5312 51.9531V46L14.1875 44.6719C14.4531 43.8125 14.7969 43 15.2031 42.2188L13.5625 38.6875L17.9219 34.3281L21.4531 35.9687C22.2344 35.5625 23.0469 35.2187 23.9062 34.9531L25.2344 31.2969H31.1875C31.5 31.8438 31.7813 32.4219 32.0313 33C32.2031 33.4062 32.3438 33.8125 32.4844 34.2187C32.9375 35.6875 33.1875 37.2187 33.1875 38.8125Z" fill="#D3D8D9"/>
<path d="M42.4375 53.5C42.1719 54.3594 41.8281 55.1719 41.4219 55.9531L43.0625 59.4844L38.7031 63.8438L35.1875 62.1875C34.4062 62.5938 33.5937 62.9375 32.7344 63.2031L31.4062 66.8594H25.2344L23.9062 63.2031C23.2656 63 22.6563 62.7656 22.0469 62.4844C22.1406 62.4844 22.2187 62.4844 22.3125 62.4844C33.0312 62.4844 41.7187 53.7969 41.7187 43.0781C41.7187 42.9844 41.7187 42.8906 41.7187 42.7969C42 43.4063 42.2344 44.0156 42.4375 44.6562L46.0937 45.9844V52.1406L42.4375 53.5Z" fill="#7C8B8E"/>
<path d="M38.8594 49.0781C38.8594 54.8906 34.1406 59.6094 28.3281 59.6094C22.5156 59.6094 17.7969 54.8906 17.7969 49.0781C17.7969 43.2656 22.5156 38.5469 28.3281 38.5469C34.1406 38.5469 38.8594 43.2656 38.8594 49.0781Z" fill="white"/>
<path d="M38.8594 49.0781C38.8594 54.8906 34.1406 59.6094 28.3281 59.6094C24.6719 59.6094 21.4375 57.7344 19.5625 54.9062C21.2344 56.0156 23.2344 56.6719 25.3906 56.6719C31.2031 56.6719 35.9219 51.9531 35.9219 46.1406C35.9219 43.9844 35.2813 41.9844 34.1563 40.3125C36.9844 42.1875 38.8594 45.4219 38.8594 49.0781Z" fill="#EDEDED"/>
<path d="M31.4062 67.4844H25.2344C24.9687 67.4844 24.7344 67.3125 24.6406 67.0781L23.4063 63.7031C22.7344 63.4844 22.0781 63.2031 21.4219 62.8906L18.1719 64.4063C17.9375 64.5156 17.6563 64.4687 17.4688 64.2812L13.125 59.9219C12.9375 59.7344 12.8906 59.4531 13 59.2188L14.5156 55.9688C14.1875 55.3281 13.9219 54.6563 13.6875 53.9844L10.3281 52.75C10.0781 52.6563 9.92188 52.4219 9.92188 52.1562V46C9.92188 45.7344 10.0937 45.5 10.3281 45.4063L13.7031 44.1719C13.9219 43.5 14.2031 42.8281 14.5156 42.1875L13 38.9375C12.8906 38.7031 12.9375 38.4219 13.125 38.2344L17.4844 33.875C17.6719 33.6875 17.9531 33.6406 18.1875 33.75L21.4375 35.2656C22.0781 34.9375 22.75 34.6719 23.4219 34.4375L24.6563 31.0625C24.75 30.8125 24.9844 30.6562 25.25 30.6562H31.4062C31.6719 30.6562 31.9063 30.8281 32 31.0625L33.2344 34.4375C33.9219 34.6719 34.5781 34.9375 35.2031 35.25L38.4531 33.7344C38.6875 33.625 38.9688 33.6719 39.1563 33.8594L43.5156 38.2188C43.7031 38.4063 43.75 38.6875 43.6406 38.9219L42.125 42.1719C42.4531 42.8125 42.7187 43.4844 42.9531 44.1563L46.3281 45.3906C46.5781 45.4844 46.7344 45.7187 46.7344 45.9844V52.1406C46.7344 52.4063 46.5625 52.6406 46.3281 52.7344L42.9531 53.9687C42.7344 54.6406 42.4531 55.2969 42.125 55.9531L43.6406 59.2031C43.75 59.4375 43.7031 59.7187 43.5156 59.9062L39.1563 64.2656C38.9688 64.4531 38.6875 64.5 38.4531 64.3906L35.2031 62.875C34.5625 63.1875 33.9063 63.4688 33.2188 63.6875L31.9844 67.0625C31.9062 67.3281 31.6719 67.4844 31.4062 67.4844ZM25.6875 66.2344H30.9844L32.1719 62.9844C32.2344 62.7969 32.3906 62.6563 32.5781 62.6094C33.3906 62.3594 34.1719 62.0313 34.9219 61.6406C35.0938 61.5469 35.2969 61.5469 35.4844 61.625L38.6094 63.0781L42.3438 59.3437L40.8906 56.2187C40.8125 56.0469 40.8125 55.8438 40.9062 55.6563C41.3125 54.8906 41.625 54.1094 41.875 53.3125C41.9375 53.125 42.0781 52.9688 42.2656 52.9063L45.5156 51.7188V46.4375L42.2656 45.25C42.0781 45.1875 41.9375 45.0313 41.875 44.8438C41.625 44.0469 41.2969 43.2656 40.9062 42.5C40.8125 42.3281 40.8125 42.125 40.8906 41.9375L42.3438 38.7969L38.6094 35.0625L35.4688 36.5156C35.2969 36.5938 35.0781 36.5938 34.9062 36.5C34.1719 36.1094 33.375 35.7812 32.5625 35.5312C32.375 35.4687 32.2344 35.3281 32.1563 35.1563L30.9687 31.9062H25.6719L24.4844 35.1563C24.4219 35.3438 24.2656 35.4844 24.0781 35.5312C23.2813 35.7812 22.5 36.1094 21.7344 36.5C21.5625 36.5938 21.3594 36.5938 21.1719 36.5156L18.0469 35.0625L14.3125 38.7969L15.7656 41.9219C15.8438 42.0937 15.8438 42.2969 15.75 42.4844C15.3594 43.2344 15.0312 44.0156 14.7812 44.8281C14.7187 45.0156 14.5781 45.1563 14.4062 45.2344L11.1563 46.4219V51.7031L14.4062 52.8906C14.5937 52.9531 14.7344 53.1094 14.7812 53.2969C15.0312 54.0938 15.3594 54.8906 15.75 55.6406C15.8438 55.8125 15.8438 56.0156 15.7656 56.1875L14.3125 59.3125L18.0469 63.0469L21.1719 61.5938C21.3438 61.5156 21.5469 61.5156 21.7188 61.6094C22.4844 62.0156 23.2656 62.3281 24.0625 62.5781C24.25 62.6406 24.4063 62.7813 24.4688 62.9688L25.6875 66.2344Z" fill="#333333"/>
<path d="M28.3281 60.25C22.1719 60.25 17.1719 55.25 17.1719 49.0938C17.1719 42.9375 22.1719 37.9375 28.3281 37.9375C34.4844 37.9375 39.4844 42.9375 39.4844 49.0938C39.4844 55.2344 34.4844 60.25 28.3281 60.25ZM28.3281 39.1719C22.8594 39.1719 18.4219 43.6094 18.4219 49.0781C18.4219 54.5469 22.8594 58.9844 28.3281 58.9844C33.7969 58.9844 38.2344 54.5469 38.2344 49.0781C38.2344 43.625 33.7813 39.1719 28.3281 39.1719Z" fill="#333333"/>
<path d="M52.5469 72.0938H7.32812C6.98437 72.0938 6.70312 71.8125 6.70312 71.4688C6.70312 71.125 6.98437 70.8438 7.32812 70.8438H52.5625C52.9063 70.8438 53.1875 71.125 53.1875 71.4688C53.1875 71.8125 52.8906 72.0938 52.5469 72.0938Z" fill="#333333"/>
<path d="M75.7344 22.8281H68.1875V67.7188H75.7344V22.8281Z" fill="#EDEDED"/>
<path d="M75.7344 22.8281H72.3906V67.7031H75.7344V22.8281Z" fill="#D3D8D9"/>
<path d="M79.375 22.2031H76.3594V18.5C76.3594 16.0781 74.3906 14.0938 71.9531 14.0938C69.5313 14.0938 67.5625 16.0625 67.5625 18.5C67.5625 33.2969 67.5625 53.4531 67.5625 67.7188C67.5625 67.7656 67.5781 67.875 67.5938 67.9375L71.3594 78.3594C71.4531 78.6094 71.6875 78.7656 71.9531 78.7656C72.2188 78.7656 72.4531 78.5938 72.5469 78.3594L76.3281 67.9375C76.3438 67.875 76.3594 67.7656 76.3594 67.7188V23.4531H78.75V37.7813C78.75 38.125 79.0313 38.4063 79.375 38.4063C79.7188 38.4063 80 38.125 80 37.7813V22.8281C80 22.4844 79.7188 22.2031 79.375 22.2031ZM75.1094 67.0781H68.8125V23.4531H75.1094V67.0781ZM68.8125 18.5C68.8125 16.7344 70.25 15.3438 71.9531 15.3438C73.6875 15.3438 75.1094 16.75 75.1094 18.5V22.2031H68.8125V18.5ZM71.9531 76.2969L69.0781 68.3281H74.8438L71.9531 76.2969Z" fill="#333333"/>
</svg>
