<svg width="52" height="52" viewBox="0 0 52 52" fill="none" xmlns="http://www.w3.org/2000/svg">
<rect width="52" height="52" rx="26" fill="#E4E7EC"/>
<path d="M27.5718 31.9577C30.2418 34.0256 32.6822 36.4297 34.8991 39.1603C35.5128 39.7815 35.5066 40.7919 34.8854 41.4056C34.2642 42.0192 33.1573 41.9223 32.5437 41.3012L32.4464 41.1932C33.06 41.8144 33.0538 42.8248 32.4326 43.4385C31.8115 44.0521 30.801 44.0459 30.1874 43.4248L29.2344 42.4599C29.848 43.081 29.8418 44.0915 29.2207 44.7051C28.5995 45.3188 27.589 45.3126 26.9754 44.6914L26.6595 44.3715C23.5418 46.8354 18.5075 41.5445 13.4932 35.6617L16.3746 26.3594H21.3925L27.5718 31.9577Z" fill="#FEC9A3"/>
<path d="M33.1291 38.925L37.6626 36.1652L34.7134 26.6444C32.3372 25.5573 28.5098 24.8517 25.0479 24.9848C21.7271 24.9848 16.8601 30.339 18.6037 32.0702C19.8022 33.02 21.121 33.6169 23.5088 31.0765C24.317 31.1561 25.0634 31.0385 25.708 30.5956L27.5706 31.9574L27.0211 32.9709L33.1291 38.925Z" fill="#FEC9A3"/>
<path d="M24.8781 45.6509C21.5065 45.6509 17.169 40.9506 12.9475 35.9973C12.7891 35.8115 12.8112 35.5319 12.9974 35.3739C13.1824 35.2147 13.462 35.2368 13.6213 35.4235C18.279 40.8887 23.4934 46.526 26.4054 44.2249C26.5983 44.0728 26.8757 44.1059 27.0265 44.2975C27.1783 44.4895 27.146 44.7674 26.954 44.9187C26.3169 45.4226 25.621 45.6509 24.8781 45.6509Z" fill="black"/>
<path d="M28.1508 45.8178C28.1464 45.8178 28.142 45.8178 28.1376 45.8178C27.5867 45.8143 27.0718 45.598 26.6864 45.2082L21.3473 39.8036C21.1757 39.6293 21.1774 39.3497 21.3513 39.178C21.5252 39.0055 21.8052 39.0077 21.9769 39.1816L27.316 44.5866C27.535 44.8082 27.8287 44.9312 28.1433 44.9334C28.4565 44.9374 28.7534 44.8158 28.9746 44.5968C29.1963 44.3782 29.3192 44.0844 29.3215 43.7699C29.3232 43.4553 29.2033 43.1602 28.9843 42.9386L24.615 38.5153C24.4434 38.341 24.4451 38.0614 24.619 37.8897C24.7924 37.7172 25.0725 37.7198 25.2446 37.8932L29.6139 42.3165C29.9992 42.7067 30.2094 43.2248 30.2059 43.7752C30.2028 44.326 29.9864 44.8414 29.5966 45.2268C29.21 45.6081 28.6968 45.8178 28.1508 45.8178Z" fill="black"/>
<path d="M31.4192 44.5297C31.4148 44.5297 31.4104 44.5297 31.4064 44.5292C30.8556 44.5261 30.3401 44.3098 29.9552 43.9196L28.9859 42.9383C28.8138 42.764 28.8156 42.4844 28.9894 42.3127C29.1638 42.1402 29.4434 42.1428 29.615 42.3162L30.5848 43.298C30.8038 43.5196 31.0971 43.6426 31.4117 43.6448C31.4143 43.6448 31.417 43.6448 31.4192 43.6448C31.7311 43.6448 32.0235 43.5249 32.243 43.3081C32.4646 43.0891 32.5876 42.7954 32.5898 42.4808C32.592 42.1663 32.4722 41.8712 32.2532 41.6495L27.8838 37.2262C27.7117 37.0519 27.7135 36.7723 27.8874 36.6006C28.0617 36.4281 28.3413 36.4307 28.513 36.6042L32.8827 41.0275C33.2681 41.4177 33.4782 41.9358 33.4747 42.4866C33.4711 43.0374 33.2548 43.5524 32.865 43.9377C32.4779 44.3199 31.9651 44.5297 31.4192 44.5297Z" fill="black"/>
<path d="M19.2957 34.0472C18.5944 34.0472 17.9344 33.799 17.3101 33.3049C17.2199 33.2332 17.161 33.1297 17.146 33.0151C16.9562 31.5595 17.8627 29.4886 19.5116 27.6105C21.2733 25.6041 23.3403 24.4065 25.0414 24.4065C28.4754 24.2751 32.5094 24.9684 35.059 26.135C35.2811 26.2363 35.3789 26.4991 35.2772 26.7212C35.1758 26.9429 34.9135 27.0416 34.6909 26.9394C32.2559 25.8258 28.3816 25.1648 25.0582 25.2913C23.6128 25.2918 21.7484 26.4045 20.1761 28.1945C18.7838 29.7806 17.9512 31.5303 18.0078 32.7231C18.9015 33.3602 20.2495 33.6535 22.712 31.1844C22.8058 31.0901 22.9368 31.0445 23.0686 31.0565C23.6915 31.1189 24.7741 30.6654 25.463 30.1929C25.6647 30.0544 25.9399 30.1057 26.078 30.307C26.216 30.5088 26.1651 30.784 25.9638 30.9224C25.4267 31.2914 24.2048 31.9431 23.1996 31.9471C21.7648 33.3491 20.4721 34.0472 19.2957 34.0472Z" fill="black"/>
<path d="M33.9593 42.4192C33.9155 42.4192 33.8725 42.4179 33.8287 42.4152C33.2686 42.3825 32.7302 42.1436 32.3511 41.7605C32.1794 41.5861 32.1812 41.3065 32.355 41.1344C32.5294 40.9628 32.809 40.965 32.9811 41.1384C33.208 41.3689 33.5359 41.5123 33.8801 41.5322C34.222 41.5525 34.5273 41.449 34.737 41.2415C34.9587 41.0225 35.0817 40.7287 35.0839 40.4142C35.0861 40.0996 34.9662 39.8045 34.7472 39.5829C32.4833 36.7979 29.9996 34.3566 27.3358 32.294C27.1425 32.1441 27.1071 31.8662 27.2566 31.6733C27.4066 31.48 27.684 31.4455 27.8773 31.5941C30.5947 33.6987 33.1271 36.1882 35.4051 38.9927C35.7617 39.351 35.9714 39.8687 35.9678 40.4199C35.9643 40.9712 35.7479 41.4857 35.3582 41.8711C35.0029 42.2228 34.4981 42.4192 33.9593 42.4192Z" fill="black"/>
<path d="M18.4456 26.6895H16.2149C15.9707 26.6895 15.7725 26.4913 15.7725 26.2471C15.7725 26.0029 15.9707 25.8047 16.2149 25.8047H18.4456C18.6898 25.8047 18.888 26.0029 18.888 26.2471C18.888 26.4909 18.6902 26.6895 18.4456 26.6895Z" fill="black"/>
<path d="M36.1011 37.7462C35.9515 37.7462 35.806 37.6705 35.7228 37.5342C35.5958 37.325 35.6617 37.0529 35.8706 36.9259L37.646 35.8455C37.8553 35.719 38.1273 35.7849 38.2539 35.9937C38.3808 36.2026 38.3149 36.4746 38.1061 36.6016L36.3307 37.682C36.2586 37.7254 36.1789 37.7462 36.1011 37.7462Z" fill="black"/>
<path d="M12.8816 37.4523H7.94242C7.6982 37.4523 7.5 37.2545 7.5 37.0099V23.306C7.5 23.1848 7.54955 23.0688 7.63759 22.9852C7.72563 22.9021 7.8442 22.8569 7.96454 22.864C10.5536 22.9923 13.3647 23.4223 16.8102 24.2174C16.9301 24.2452 17.0332 24.3213 17.0943 24.428C17.1558 24.5346 17.1699 24.662 17.1332 24.7792L13.3045 37.14C13.247 37.3258 13.0758 37.4523 12.8816 37.4523ZM8.38484 36.5675H12.5555L16.1466 24.9743C13.1665 24.3041 10.6757 23.9192 8.38484 23.7741V36.5675Z" fill="black"/>
<path d="M43.0579 37.4517H38.1183C37.9245 37.4517 37.7533 37.3256 37.6958 37.1402L33.8675 24.7795C33.8312 24.6618 33.8449 24.5344 33.9064 24.4278C33.9679 24.3212 34.0706 24.2446 34.1909 24.2172C37.636 23.4222 40.4467 22.9922 43.0362 22.8639C43.157 22.8577 43.2755 22.9015 43.3631 22.9851C43.4507 23.0687 43.5007 23.1846 43.5007 23.3058V37.0093C43.5003 37.2535 43.3025 37.4517 43.0579 37.4517ZM38.4443 36.5669H42.6154V23.7735C40.3242 23.9181 37.8342 24.3035 34.8537 24.9733L38.4443 36.5669Z" fill="black"/>
<path d="M20.4242 23.5307C20.3074 23.5307 20.1911 23.4847 20.1039 23.3936C18.4577 21.6681 17.5879 19.5888 17.5879 17.3802V10.1405C17.5879 9.52773 18.0241 9.00347 18.6254 8.89419C20.9808 8.46593 23.0345 7.58109 24.7294 6.26446C25.1833 5.91185 25.8182 5.91185 26.2717 6.26446C27.9666 7.58065 30.0207 8.46549 32.3757 8.89375C32.977 9.00302 33.4136 9.52729 33.4136 10.14V17.3802C33.4136 19.4605 32.6323 21.4429 31.1551 23.1126C30.9936 23.2967 30.7135 23.3126 30.5304 23.1507C30.3477 22.9887 30.3304 22.7091 30.4923 22.526C31.8249 21.02 32.5288 19.2406 32.5288 17.3798V10.1405C32.5288 9.95555 32.3978 9.79761 32.2178 9.76487C29.7212 9.3105 27.5379 8.36815 25.7293 6.96392C25.5943 6.85907 25.4067 6.85907 25.2723 6.96392C23.4636 8.3686 21.2803 9.31139 18.7837 9.76531C18.6032 9.79805 18.4727 9.95599 18.4727 10.1409V17.3811C18.4727 19.3574 19.258 21.2257 20.7445 22.7835C20.9131 22.9604 20.9065 23.2405 20.7299 23.409C20.6437 23.49 20.534 23.5307 20.4242 23.5307Z" fill="black"/>
<path d="M24.4614 19.3143C24.326 19.3143 24.1977 19.2519 24.1141 19.1457L22.0365 16.5102C21.8852 16.3182 21.9179 16.0404 22.1099 15.8891C22.3024 15.7382 22.5798 15.7705 22.7311 15.9625L24.4614 18.1574L28.2688 13.3266C28.4201 13.135 28.6984 13.1018 28.89 13.2532C29.082 13.4045 29.1147 13.6823 28.9634 13.8743L24.8087 19.1457C24.7251 19.2519 24.5972 19.3143 24.4614 19.3143Z" fill="black"/>
</svg>
