<svg width="80" height="80" viewBox="0 0 80 80" fill="none" xmlns="http://www.w3.org/2000/svg">
<g clip-path="url(#clip0_292_437)">
<path fill-rule="evenodd" clip-rule="evenodd" d="M56.4058 42.9088C62.8576 37.077 72.0699 38.5446 76.9917 46.1993C81.9071 53.854 80.6701 64.7838 74.2183 70.6234C67.7665 76.4552 58.5542 74.9876 53.6324 67.3328C52.3628 65.3554 51.5035 63.1617 51.0412 60.8908L41.7639 62.258C40.8524 62.4048 40.0191 61.6478 39.8954 60.5664C39.7717 59.485 40.4097 58.4963 41.3212 58.3495L50.6311 56.9823C50.5725 51.6526 52.5712 46.377 56.4058 42.9088ZM41.7704 1.73855C48.7365 -2.3553 57.1871 1.02792 60.6376 9.29286C64.0881 17.5578 61.2365 27.5839 54.2704 31.6777C48.8602 34.8524 42.5647 33.5315 38.4045 28.9124L31.7509 35.872C31.0673 36.5981 30.0191 36.5285 29.4071 35.7175C28.7951 34.9065 28.8537 33.6629 29.5373 32.9368L36.2626 25.9C35.9501 25.3361 35.6636 24.7414 35.4032 24.1234C31.9527 15.8585 34.8042 5.8324 41.7704 1.73855ZM2.87715 57.075C1.4058 57.8706 0.969603 59.848 1.23653 61.9568C1.36023 62.9223 1.62715 63.8955 1.99825 64.8302C2.37585 65.7648 2.85762 66.6222 3.43054 67.3328C4.73913 68.9704 6.49044 69.8046 8.30033 68.7232C8.44356 68.646 8.5933 68.6305 8.72351 68.6846C8.75606 68.6691 8.77559 68.646 8.82117 68.6305C9.28341 68.3756 9.70007 68.1439 10.0777 67.9276C10.5074 67.6959 10.911 67.4873 11.2951 67.2865C11.5946 67.1397 11.9397 67.3097 12.0568 67.6495C12.0699 67.6727 12.0764 67.7036 12.0764 67.7268L12.3498 68.5919C13.0529 70.8319 13.73 73.0024 14.5113 74.7095C14.5243 74.7327 14.6219 74.9798 14.7326 75.2116C15.2079 76.293 15.7287 77.4593 16.2886 78.1004C16.7834 78.6566 17.3889 78.7493 18.2092 77.7606C18.3589 77.5443 18.5087 77.3357 18.6584 77.1349C19.1402 76.4861 19.6154 75.845 19.7261 74.9876C19.5764 74.8022 19.3225 74.7249 19.0686 74.64C18.2222 74.3619 17.3889 74.0993 17.3628 72.0678V71.7743C17.3628 71.1795 17.3498 70.8783 17.3173 70.7624C17.2977 70.6929 17.1545 70.5847 16.8876 70.3607L16.7834 70.2835C16.2561 69.8432 15.9956 69.1403 15.9175 68.3524C15.8199 67.4178 15.9566 66.3519 16.1324 65.5794C16.1844 65.3323 16.3407 65.1546 16.5425 65.0851C22.3889 63.1386 26.1649 63.772 29.1792 64.2895C29.3094 64.3127 29.4397 64.3281 29.5568 64.3513C26.6076 61.6092 23.9384 57.1755 21.9266 52.4946C19.7977 47.5588 18.398 42.3372 18.1636 38.56C16.2756 43.0864 12.8837 50.3395 3.49564 56.264C3.48262 56.264 3.47611 56.2794 3.46309 56.2794L3.38497 56.3181C3.28731 56.3721 3.27429 56.3644 3.25476 56.3953C3.25476 56.4339 3.2808 56.4339 3.25476 56.5034C3.25476 56.5189 3.26127 56.4725 3.17663 56.712C3.11153 56.8742 3.00736 56.9901 2.89018 57.0596L2.87715 57.075ZM27.3889 52.0697C27.5842 53.7691 26.5295 57.0519 25.6701 57.245C27.5712 60.4737 29.7456 63.1926 32.0243 64.6448C32.1545 64.6371 32.2587 64.6371 32.3693 64.6139C32.5712 64.5676 32.76 64.4826 32.9618 64.2818C33.3654 63.6329 33.5607 62.706 33.5933 61.5628C33.6649 58.056 32.0959 52.819 29.9019 47.8909C27.7144 42.9551 24.9084 38.3592 22.5321 36.1346C21.6597 35.3236 20.8654 34.8447 20.2404 34.8369C20.0777 34.8369 19.9865 34.8369 19.941 34.8756C19.8954 34.9065 19.8173 35.0069 19.7066 35.1768C19.6545 35.254 19.5959 35.3467 19.5373 35.4549C19.5308 35.4858 19.5308 35.4935 19.5243 35.5244C18.8277 38.0734 19.7456 43.1637 21.6402 48.478C22.5386 47.7905 26.9006 47.6901 27.4019 52.062L27.3889 52.0697ZM32.1219 66.0274C31.9982 66.0738 31.8746 66.0815 31.7378 66.0197C31.6337 66.012 31.5165 66.0043 31.3993 65.9888C30.6245 65.9193 29.8498 65.7957 29.0165 65.6567C26.1779 65.1778 22.6102 64.5676 17.1805 66.3132C17.0764 66.9003 17.0113 67.5877 17.0699 68.1825C17.1219 68.6151 17.2326 68.9704 17.4475 69.1558L17.5516 69.233C18.0139 69.6115 18.2482 69.7969 18.398 70.2294C18.5347 70.5925 18.5347 70.9941 18.5412 71.7666V72.0601C18.5477 73.0411 18.9709 73.1801 19.3876 73.3191C19.9344 73.4968 20.4748 73.6667 20.8264 74.47C20.885 74.5859 20.911 74.7172 20.911 74.8717C20.8459 76.3239 20.1884 77.2044 19.5308 78.0695C19.3876 78.2549 19.2378 78.4635 19.1076 78.6489L19.0751 78.6952C17.6363 80.4872 16.4774 80.24 15.4878 79.1278C14.7782 78.3322 14.2248 77.0654 13.691 75.8913C13.6454 75.7909 13.5998 75.6827 13.4696 75.4047C12.6688 73.6281 11.9722 71.4035 11.2496 69.1171L11.1779 68.8777C10.9696 68.9935 10.7482 69.1017 10.5399 69.2176C10.1102 69.4493 9.69356 69.6733 9.30294 69.905C9.24434 69.9282 9.2183 69.9591 9.19226 69.9745C8.93184 70.1445 8.82768 70.2294 8.56726 70.129C6.29512 71.3417 4.14669 70.2989 2.56465 68.3138C1.91361 67.495 1.35372 66.5063 0.93054 65.4558C0.507363 64.4053 0.214394 63.2776 0.0711651 62.1808C-0.254356 59.5622 0.312051 57.0982 2.17403 55.9627C2.24564 55.7542 2.29122 55.6538 2.40189 55.507C2.52559 55.3525 2.63627 55.2907 2.85111 55.144L2.92924 55.1054C2.94226 55.1054 2.94877 55.0899 2.94877 55.0899C12.5972 49.0109 15.6831 41.4721 17.4475 37.1774C17.9357 35.9801 18.3264 35.03 18.7561 34.3658C18.9644 34.0413 19.1272 33.8328 19.368 33.686C19.6089 33.5393 19.8693 33.4775 20.2339 33.4929C21.1454 33.5084 22.1545 34.0954 23.2287 35.0918C25.7352 37.4323 28.6519 42.1904 30.9045 47.2807C33.1701 52.3864 34.8042 57.8629 34.7261 61.6169C34.6936 63.0768 34.4201 64.3049 33.8212 65.1932C33.8016 65.2241 33.7821 65.255 33.7496 65.2705C33.3524 65.6953 32.9618 65.8961 32.5386 65.9811C32.3889 66.0043 32.2391 66.0274 32.1024 66.0352L32.1219 66.0274ZM43.8863 16.5537L47.7209 12.3208C47.6428 12.1508 47.5842 11.9655 47.5386 11.7801C47.1089 10.0885 47.9227 8.30416 49.3485 7.79436C50.7743 7.28456 52.2782 8.25009 52.7079 9.9417C53.1376 11.6333 52.3238 13.4176 50.898 13.9274C50.3316 14.1282 49.7587 14.0973 49.2378 13.8888L45.2079 18.338C45.2209 18.392 45.2404 18.4461 45.2535 18.5002C45.2795 18.5929 45.299 18.6855 45.312 18.786L50.3055 19.7901C50.6376 19.1181 51.1779 18.5774 51.8615 18.338C53.2873 17.8282 54.7912 18.7937 55.2209 20.4853C55.6506 22.1769 54.8368 23.9612 53.411 24.471C51.9852 24.9808 50.4813 24.0153 50.0516 22.3237C50.0386 22.2619 50.0191 22.1923 50.0061 22.1306L44.954 21.1187C44.6219 21.7598 44.0946 22.2619 43.4371 22.4936C42.0113 23.0034 40.5074 22.0379 40.0777 20.3463C39.648 18.6546 40.4618 16.8703 41.8876 16.3605C42.5842 16.0979 43.2938 16.1983 43.8863 16.5537ZM68.2092 51.3205L71.51 50.8184C72.5126 50.6639 73.4436 51.5136 73.5738 52.7108L73.9904 56.5421C74.1206 57.7393 73.4045 58.8362 72.3954 58.9907L70.9761 59.2069C71.2821 60.1338 71.6206 60.9526 72.4605 61.6246C70.9761 61.4083 69.7717 60.6977 68.8147 59.5313L68.5673 59.57C68.4696 59.5854 68.3719 59.5931 68.2678 59.5931C68.7561 58.9907 69.0621 58.2723 68.9839 57.5617L68.8081 55.9627L68.6519 54.5183L68.3915 52.1315C68.3589 51.8457 68.2938 51.5754 68.2092 51.3205ZM59.0425 51.0038L64.1532 50.2236C65.5464 50.0151 66.829 51.1892 67.0113 52.8422L67.48 57.1755C67.5777 58.056 67.1415 58.9057 66.51 59.5468C65.924 60.1416 65.1428 60.5818 64.4917 60.6823L64.4397 60.69C64.0555 61.4392 63.5803 62.1035 63.0204 62.6751C62.4019 63.3085 61.6727 63.826 60.8394 64.2122C60.6831 64.2818 60.5009 64.2586 60.3641 64.1118C60.1688 63.911 60.1493 63.5634 60.3186 63.3317C60.6506 62.8759 60.8524 62.4279 60.9891 61.9722C61.0607 61.7173 61.1193 61.4547 61.1584 61.1843L60.1623 61.3388C59.4657 61.447 58.7951 61.2075 58.2808 60.7286C57.7665 60.2574 57.4019 59.5468 57.3107 58.7203L56.842 54.387C56.6597 52.7417 57.6493 51.2201 59.0425 51.0038Z" fill="white"/>
</g>
<defs>
<clipPath id="clip0_292_437">
<rect width="80" height="80" fill="white"/>
</clipPath>
</defs>
</svg>
