<svg width="269" height="42" viewBox="0 0 269 42" fill="none" xmlns="http://www.w3.org/2000/svg">
<g clip-path="url(#clip0_212_460)">
<path d="M82.3271 10.0918H87.0543V33.6005H82.3271V10.0918Z" fill="#2A3362"/>
<path d="M105.35 25.258C105.35 28.5032 103.19 29.9609 100.314 29.9609C97.439 29.9609 95.5163 28.5032 95.5163 25.4232V17.0449H90.7891V26.4839C90.7891 31.1827 93.8381 33.9315 98.9094 33.9315C102.096 33.9315 103.876 32.797 105.072 31.5147H105.347L105.758 33.6021H110.106V17.0449H105.35V25.258Z" fill="#2A3362"/>
<path d="M151.724 30.3232C148.263 30.3232 146.312 28.8004 146.005 26.5833H161.009C161.078 26.1224 161.111 25.6569 161.111 25.1902C161.079 19.2343 156.416 16.7129 151.427 16.7129C145.638 16.7129 141.285 20.0604 141.285 25.4576C141.285 30.5874 145.467 33.932 151.736 33.932C156.98 33.932 160.471 31.6824 161.194 28.2363H156.522C155.938 29.595 154.26 30.3235 151.724 30.3235L151.724 30.3232ZM151.43 20.3246C154.447 20.3246 156.193 21.6142 156.468 23.4442H146.107C146.55 21.6908 148.298 20.3246 151.415 20.3246H151.43H151.43Z" fill="#2A3362"/>
<path d="M169.143 19.4229H168.849L168.403 17.0371H164.106V33.6034H168.834V26.4852C168.834 23.271 170.75 21.4849 174.316 21.4849C174.964 21.4763 175.61 21.5306 176.246 21.6491V17.0462H175.586C172.434 17.0462 170.478 17.6754 169.142 19.4229H169.143Z" fill="#2A3362"/>
<path d="M199.457 28.4352H199.185L195.141 18.0718H190.276L186.303 28.4042H185.995L182.226 17.0449H177.531L183.321 33.6021H188.462L192.573 23.0374H192.847L196.89 33.6021H202.063L207.854 17.0449H203.159L199.457 28.4352Z" fill="#2A3362"/>
<path d="M226.671 28.7819V23.2399C226.671 18.7361 222.73 16.7168 217.83 16.7168C212.624 16.7168 209.368 19.1023 208.922 22.6727H213.651C213.994 21.1159 215.364 20.256 217.83 20.256C220.293 20.256 221.938 21.1496 221.938 22.9711V23.3935L214.229 23.9606C210.666 24.2265 208.066 25.7508 208.066 28.9945C208.066 32.3388 211.048 33.9268 215.431 33.9268C218.971 33.9268 221.128 32.9741 222.448 31.5354H222.682C223.425 33.1531 224.931 33.5974 226.567 33.5974H228.554V30.2251H228.108C227.114 30.2251 226.671 29.7631 226.671 28.7822L226.671 28.7819ZM221.941 27.0269C221.941 29.6444 218.713 30.5029 215.945 30.5029C214.061 30.5029 212.829 30.0403 212.829 28.7819C212.829 27.6474 213.891 27.0949 215.47 26.9607L221.944 26.4982L221.941 27.0269Z" fill="#2A3362"/>
<path d="M244.147 17.0449L238.631 29.0334H238.323L232.738 17.0449H227.632L235.614 33.6021H241.269L249.215 17.0449H244.147Z" fill="#2A3362"/>
<path d="M264.328 28.2361C263.741 29.5947 262.066 30.3232 259.53 30.3232C256.07 30.3232 254.119 28.8004 253.811 26.5833H268.815C268.884 26.1224 268.918 25.6569 268.918 25.1902C268.886 19.2343 264.223 16.7129 259.234 16.7129C253.445 16.7129 249.095 20.0604 249.095 25.4576C249.095 30.5874 253.273 33.932 259.541 33.932C264.787 33.932 268.278 31.6824 269 28.2363H264.328V28.2361ZM259.222 20.3246C262.239 20.3246 263.984 21.6142 264.261 23.4442H253.902C254.351 21.6908 256.093 20.3246 259.211 20.3246H259.222Z" fill="#2A3362"/>
<path d="M74.6439 15.826C74.6439 14.3697 75.7061 13.742 77.0773 13.742C77.7146 13.7477 78.349 13.8366 78.9617 14.0062L79.7505 10.6929C78.6056 10.3014 77.4015 10.1009 76.1883 10.0977C72.6926 10.0977 69.8849 11.8879 69.8849 15.5939V17.046H65.8057V20.6739H69.8849V33.6029H74.6441V20.6707H79.9735V17.0457H74.6441V15.8255L74.6439 15.826Z" fill="#2A3362"/>
<path d="M120.539 12.3789H116.138L115.892 17.0467H112.17V20.6746H115.803V28.8356C115.803 31.6153 117.27 33.9406 121.672 33.9406C122.813 33.9406 123.951 33.8192 125.065 33.5788V30.0927C124.423 30.2316 123.767 30.3097 123.11 30.3245C120.747 30.3245 120.543 29.0349 120.543 28.0393V20.6655H125.238V17.0467H120.539V12.3789Z" fill="#2A3362"/>
<path d="M135.385 12.377H130.998L130.753 17.0447H127.021V20.6726H130.655V28.8336C130.655 31.6133 132.122 33.9386 136.524 33.9386C137.662 33.9357 138.798 33.8116 139.907 33.5678V30.0908C139.265 30.2296 138.611 30.3078 137.953 30.3225C135.591 30.3225 135.385 29.0329 135.385 28.0373V20.6635H140.095V17.0447H135.385V12.377Z" fill="#2A3362"/>
<path d="M0 9.46526C0 6.80793 0.804099 4.53917 2.49113 2.9082L5.4255 5.74421C2.15927 8.88941 5.01252 18.6679 14.3115 27.665C23.6103 36.6606 33.7342 39.4141 36.9984 36.2634L39.9328 39.0995C34.4277 44.42 21.8874 40.6447 11.3924 30.4983C4.11128 23.4583 0 15.4715 0 9.46551V9.46526Z" fill="#009A46"/>
<path d="M18.5053 41.5432C15.7556 41.5432 13.4081 40.7661 11.7178 39.1356L14.6521 36.2994C17.912 39.4502 28.0296 36.6938 37.3378 27.6997C46.6455 18.7065 49.4929 8.92802 46.2327 5.77742L49.1671 2.94141C54.6752 8.26196 50.7656 20.3804 40.2658 30.5251C32.9832 37.5725 24.7194 41.5432 18.5051 41.5432H18.5053Z" fill="#FF5805"/>
<path d="M41.2381 26.4669C39.4563 21.5096 35.8187 16.2126 30.9906 11.5495C20.4938 1.40144 7.95503 -2.3759 2.44993 2.9481C2.06034 3.32783 2.3978 4.26718 3.208 5.04826C4.01795 5.8313 4.98861 6.15474 5.37973 5.77821C8.64291 2.62737 18.7605 5.38374 28.0651 14.3794C32.4668 18.6335 35.7483 23.3841 37.3285 27.7801C38.7147 31.6353 38.5787 34.7434 36.9649 36.3031C36.5722 36.6796 36.913 37.6222 37.7199 38.4018C38.527 39.1819 39.5005 39.5097 39.8949 39.13C42.7149 36.4046 43.1929 31.901 41.2381 26.4667V26.4669Z" fill="#F5AFCB"/>
<path d="M49.162 2.94799C46.3365 0.216677 41.6823 -0.245873 36.0534 1.64488C30.9274 3.36433 25.4434 6.88433 20.6186 11.5465C10.1216 21.6914 6.21398 33.8096 11.7188 39.1333C12.1117 39.5099 13.0837 39.1852 13.8921 38.4049C14.702 37.6253 15.0397 36.683 14.6471 36.3032C11.3781 33.1524 14.2389 23.3737 23.5471 14.3763C27.9488 10.1222 32.8637 6.95217 37.4123 5.42344C41.4011 4.08814 44.6169 4.21521 46.234 5.77515C46.6236 6.15168 47.5986 5.82701 48.406 5.04421C49.2129 4.26092 49.5521 3.32476 49.1623 2.94823L49.162 2.94799Z" fill="#FF9B00"/>
</g>
<defs>
<clipPath id="clip0_212_460">
<rect width="269" height="41" fill="white" transform="translate(0 0.5)"/>
</clipPath>
</defs>
</svg>
