<svg width="202" height="48" viewBox="0 0 202 48" fill="none" xmlns="http://www.w3.org/2000/svg">
<g clip-path="url(#clip0_212_447)">
<path d="M85.768 21.326C87.3352 19.9234 89.2508 19.2363 91.5433 19.2363C93.865 19.2363 95.7806 19.9234 97.3478 21.326C98.9148 22.7001 99.6985 24.5034 99.6985 26.7077C99.6985 28.8832 98.9148 30.6866 97.3478 32.0605C95.8095 33.406 93.8942 34.093 91.5725 34.093C89.2508 34.093 87.3352 33.406 85.768 32.0605C84.2299 30.6866 83.4463 28.8832 83.4463 26.7077C83.4463 24.5034 84.2299 22.7001 85.768 21.326ZM91.5725 30.1141C93.4008 30.1141 94.8519 28.7685 94.8519 26.7077C94.8519 24.6179 93.4008 23.2153 91.5725 23.2153C89.744 23.2153 88.2929 24.6179 88.2929 26.7077C88.2929 28.7685 89.7731 30.1141 91.5725 30.1141Z" fill="black"/>
<path d="M110.64 19.2363C108.608 19.2363 107.07 20.0664 106.083 21.6982H106.025L106.055 21.3547V21.1542C106.055 20.1523 105.358 19.5512 104.052 19.5512H99.7568V23.5588H100.83C101.266 23.5588 101.44 23.7592 101.44 24.1599V33.7495H106.287V27.4519C106.287 26.7362 106.374 26.1065 106.577 25.5913C107.041 24.2457 107.999 23.5588 109.421 23.5588C110.495 23.5588 111.017 24.1885 111.017 25.4194V31.7457C111.017 33.1483 111.627 33.7495 113.049 33.7495H115.835V24.5607C115.835 20.9825 114.093 19.2363 110.64 19.2363Z" fill="black"/>
<path d="M119.288 14.0547V17.9191H123.351V14.0547H119.288ZM121.726 19.5508H117.257V23.5584H118.331C118.737 23.5584 118.94 23.7587 118.94 24.1594V31.7452C118.94 33.148 119.55 33.749 120.972 33.749H123.758V21.5832C123.758 20.152 123.148 19.5508 121.726 19.5508Z" fill="black"/>
<path d="M127.501 21.3547C128.865 19.9519 130.694 19.2363 132.957 19.2363C135.018 19.2363 136.643 19.8661 137.833 21.1542C139.023 22.4139 139.632 24.074 139.632 26.0778C139.632 26.4213 139.603 26.9079 139.516 27.5664H130.433C130.781 29.2267 132.145 30.1141 133.799 30.1141C134.989 30.1141 136.324 29.6559 137.775 28.6828L139.575 32.0319C138.036 33.3201 135.656 34.093 133.422 34.093C130.984 34.093 129.069 33.3488 127.646 31.8887C126.224 30.4289 125.528 28.654 125.528 26.6502C125.47 24.5321 126.137 22.7573 127.501 21.3547ZM134.844 24.8469C134.844 23.6447 134.06 22.7286 132.87 22.7286C131.652 22.7286 130.868 23.4443 130.549 24.8469H134.844Z" fill="black"/>
<path d="M141.345 19.8104H143.87V21.0413C143.87 21.6137 143.783 22.1004 143.783 22.1004H143.841C144.74 20.4114 146.54 19.4668 148.6 19.4668C152.431 19.4668 154.811 22.4439 154.811 26.7662C154.811 31.2033 152.112 34.0658 148.397 34.0658C146.598 34.0658 144.972 33.1784 144.015 31.69H143.957C143.957 31.69 144.073 32.1765 144.073 32.8921V39.247H141.374V19.8104H141.345ZM147.991 31.7757C150.225 31.7757 152.083 29.9724 152.083 26.8235C152.083 23.7893 150.429 21.8427 148.078 21.8427C145.959 21.8427 143.986 23.3313 143.986 26.8522C143.986 29.314 145.379 31.7757 147.991 31.7757Z" fill="black"/>
<path d="M163.72 19.4648C167.957 19.4648 171.353 22.5277 171.353 26.7358C171.353 30.9724 167.928 34.0638 163.749 34.0638C159.512 34.0638 156.116 30.9724 156.116 26.7358C156.116 22.5277 159.541 19.4648 163.72 19.4648ZM163.749 31.7738C166.419 31.7738 168.625 29.6842 168.625 26.7643C168.625 23.8731 166.419 21.8122 163.749 21.8122C161.05 21.8122 158.873 23.8731 158.873 26.7643C158.902 29.6842 161.079 31.7738 163.749 31.7738Z" fill="black"/>
<path d="M173.472 14.2852H176.258V16.976H173.472V14.2852ZM173.53 19.8099H176.229V33.7792H173.53V19.8099Z" fill="black"/>
<path d="M179.276 19.8084H181.917V21.6977C181.917 22.2702 181.83 22.7569 181.83 22.7569H181.888C182.411 21.5545 184.152 19.4648 187.257 19.4648C190.595 19.4648 192.104 21.2683 192.104 24.8177V33.7491H189.405V25.4189C189.405 23.4724 189.028 21.9267 186.735 21.9267C183.978 21.9267 182.004 24.188 182.004 27.0505V33.7491H179.306V19.8084H179.276Z" fill="black"/>
<path d="M195.615 22.1291H193.758V19.9536H195.673V15.9746H198.343V19.9536H201.768V22.1291H198.343V28.3695C198.343 31.1462 200.317 31.5182 201.362 31.5182C201.564 31.5182 201.738 31.5182 202 31.461V33.837C201.768 33.8655 201.477 33.9228 201.042 33.9228C199.215 33.9228 195.615 33.3503 195.615 28.6845V22.1291Z" fill="black"/>
<path d="M81.9079 25.3331L80.9792 14.0547H75.32C75.32 14.0547 70.9958 22.7568 70.6475 23.9304H70.5894L66.0619 14.0547H60.4028L59.474 23.8447L58.6904 33.7777H62.1441C63.6243 33.7777 64.2336 33.148 64.3498 31.6022C64.3498 31.6022 64.9302 22.4993 64.8432 21.1824H64.9011L65.0753 21.7836C65.3075 22.5851 68.529 30.3426 68.529 30.3426H72.766C72.766 30.3426 75.9875 22.6995 76.3937 21.1824H76.4518L76.9452 31.6022C77.0613 33.148 77.6707 33.7777 79.1509 33.7777H82.6043L81.9079 25.3331Z" fill="black"/>
<path d="M24.3784 47.9192H24.2041C12.9437 47.8906 5.39806 45.5719 3.83088 44.1405C2.17662 42.6807 0 35.1236 0 23.9597C0 12.8242 2.17662 5.23847 3.83088 3.77856C5.39806 2.3473 12.9727 0.0286255 24.2041 0H24.3784C35.6388 0.0286255 43.1844 2.3473 44.7516 3.77856C46.4059 5.23847 48.5825 12.8242 48.5825 23.9597C48.5825 35.0949 46.4059 42.6807 44.7516 44.1405C43.1844 45.6006 35.6388 47.9192 24.3784 47.9192Z" fill="#0357EE"/>
<path d="M35.4933 25.3899L34.5645 14.1973H28.9633C28.9633 14.1973 24.6971 22.8136 24.3198 23.9872H24.2617L19.7634 14.1973H14.1332L13.2045 23.9013L12.4209 33.7486H15.8455C17.3256 33.7486 17.906 33.1188 18.0221 31.573C18.0221 31.573 18.6025 22.5559 18.5155 21.2392H18.5735L18.7476 21.8402C18.9798 22.6419 22.1722 30.3421 22.1722 30.3421H26.3803C26.3803 30.3421 29.5728 22.7564 29.979 21.2392H30.0371L30.5305 31.573C30.6467 33.1188 31.256 33.7486 32.7071 33.7486H36.1316L35.4933 25.3899Z" fill="white"/>
</g>
<defs>
<clipPath id="clip0_212_447">
<rect width="202" height="48" fill="white"/>
</clipPath>
</defs>
</svg>
