<svg width="80" height="80" viewBox="0 0 80 80" fill="none" xmlns="http://www.w3.org/2000/svg">
<g clip-path="url(#clip0_293_133)">
<path fill-rule="evenodd" clip-rule="evenodd" d="M56.4058 42.9083C62.8576 37.0765 72.0699 38.5441 76.9917 46.1988C81.9071 53.8535 80.6701 64.7833 74.2183 70.6229C67.7665 76.4547 58.5542 74.9871 53.6324 67.3323C52.3628 65.3549 51.5035 63.1613 51.0412 60.8903L41.7639 62.2575C40.8524 62.4043 40.0191 61.6473 39.8954 60.5659C39.7717 59.4845 40.4097 58.4958 41.3212 58.3491L50.6311 56.9819C50.5725 51.6521 52.5712 46.3765 56.4058 42.9083ZM41.7704 1.73806C48.7365 -2.35579 57.1871 1.02743 60.6376 9.29237C64.0881 17.5573 61.2365 27.5834 54.2704 31.6772C48.8602 34.8519 42.5647 33.5311 38.4045 28.912L31.7509 35.8715C31.0673 36.5976 30.0191 36.5281 29.4071 35.717C28.7951 34.906 28.8537 33.6624 29.5373 32.9363L36.2626 25.8995C35.9501 25.3356 35.6636 24.7409 35.4032 24.1229C31.9527 15.858 34.8042 5.83191 41.7704 1.73806ZM2.87715 57.0745C1.4058 57.8701 0.969603 59.8476 1.23653 61.9563C1.36023 62.9218 1.62715 63.8951 1.99825 64.8297C2.37585 65.7643 2.85762 66.6217 3.43054 67.3323C4.73913 68.9699 6.49044 69.8041 8.30033 68.7227C8.44356 68.6455 8.5933 68.63 8.72351 68.6841C8.75606 68.6686 8.77559 68.6455 8.82117 68.63C9.28341 68.3751 9.70007 68.1434 10.0777 67.9271C10.5074 67.6954 10.911 67.4868 11.2951 67.286C11.5946 67.1392 11.9397 67.3092 12.0568 67.649C12.0699 67.6722 12.0764 67.7031 12.0764 67.7263L12.3498 68.5914C13.0529 70.8314 13.73 73.0019 14.5113 74.709C14.5243 74.7322 14.6219 74.9794 14.7326 75.2111C15.2079 76.2925 15.7287 77.4588 16.2886 78.0999C16.7834 78.6561 17.3889 78.7488 18.2092 77.7601C18.3589 77.5438 18.5087 77.3352 18.6584 77.1344C19.1402 76.4856 19.6154 75.8445 19.7261 74.9871C19.5764 74.8017 19.3225 74.7244 19.0686 74.6395C18.2222 74.3614 17.3889 74.0988 17.3628 72.0673V71.7738C17.3628 71.179 17.3498 70.8778 17.3173 70.7619C17.2977 70.6924 17.1545 70.5843 16.8876 70.3602L16.7834 70.283C16.2561 69.8427 15.9956 69.1398 15.9175 68.3519C15.8199 67.4173 15.9566 66.3514 16.1324 65.5789C16.1844 65.3318 16.3407 65.1541 16.5425 65.0846C22.3889 63.1381 26.1649 63.7715 29.1792 64.289C29.3094 64.3122 29.4397 64.3276 29.5568 64.3508C26.6076 61.6087 23.9384 57.175 21.9266 52.4941C19.7977 47.5583 18.398 42.3367 18.1636 38.5595C16.2756 43.0859 12.8837 50.339 3.49564 56.2635C3.48262 56.2635 3.47611 56.279 3.46309 56.279L3.38497 56.3176C3.28731 56.3716 3.27429 56.3639 3.25476 56.3948C3.25476 56.4334 3.2808 56.4334 3.25476 56.503C3.25476 56.5184 3.26127 56.4721 3.17663 56.7115C3.11153 56.8737 3.00736 56.9896 2.89018 57.0591L2.87715 57.0745ZM27.3889 52.0692C27.5842 53.7686 26.5295 57.0514 25.6701 57.2445C27.5712 60.4732 29.7456 63.1922 32.0243 64.6443C32.1545 64.6366 32.2587 64.6366 32.3693 64.6134C32.5712 64.5671 32.76 64.4821 32.9618 64.2813C33.3654 63.6324 33.5607 62.7055 33.5933 61.5623C33.6649 58.0555 32.0959 52.8185 29.9019 47.8904C27.7144 42.9546 24.9084 38.3587 22.5321 36.1341C21.6597 35.3231 20.8654 34.8442 20.2404 34.8364C20.0777 34.8364 19.9865 34.8365 19.941 34.8751C19.8954 34.906 19.8173 35.0064 19.7066 35.1763C19.6545 35.2536 19.5959 35.3463 19.5373 35.4544C19.5308 35.4853 19.5308 35.493 19.5243 35.5239C18.8277 38.0729 19.7456 43.1632 21.6402 48.4775C22.5386 47.79 26.9006 47.6896 27.4019 52.0615L27.3889 52.0692ZM32.1219 66.027C31.9982 66.0733 31.8746 66.081 31.7378 66.0192C31.6337 66.0115 31.5165 66.0038 31.3993 65.9883C30.6245 65.9188 29.8498 65.7952 29.0165 65.6562C26.1779 65.1773 22.6102 64.5671 17.1805 66.3127C17.0764 66.8998 17.0113 67.5872 17.0699 68.182C17.1219 68.6146 17.2326 68.9699 17.4475 69.1553L17.5516 69.2325C18.0139 69.611 18.2482 69.7964 18.398 70.2289C18.5347 70.592 18.5347 70.9936 18.5412 71.7661V72.0596C18.5477 73.0406 18.9709 73.1796 19.3876 73.3186C19.9344 73.4963 20.4748 73.6662 20.8264 74.4696C20.885 74.5854 20.911 74.7167 20.911 74.8712C20.8459 76.3234 20.1884 77.2039 19.5308 78.069C19.3876 78.2544 19.2378 78.463 19.1076 78.6484L19.0751 78.6947C17.6363 80.4867 16.4774 80.2396 15.4878 79.1273C14.7782 78.3317 14.2248 77.0649 13.691 75.8908C13.6454 75.7904 13.5998 75.6823 13.4696 75.4042C12.6688 73.6276 11.9722 71.403 11.2496 69.1167L11.1779 68.8772C10.9696 68.9931 10.7482 69.1012 10.5399 69.2171C10.1102 69.4488 9.69356 69.6728 9.30294 69.9045C9.24434 69.9277 9.2183 69.9586 9.19226 69.974C8.93184 70.144 8.82768 70.2289 8.56726 70.1285C6.29512 71.3412 4.14669 70.2985 2.56465 68.3133C1.91361 67.4946 1.35372 66.5059 0.93054 65.4554C0.507363 64.4049 0.214394 63.2771 0.0711651 62.1803C-0.254356 59.5618 0.312051 57.0977 2.17403 55.9623C2.24564 55.7537 2.29122 55.6533 2.40189 55.5065C2.52559 55.352 2.63627 55.2902 2.85111 55.1435L2.92924 55.1049C2.94226 55.1049 2.94877 55.0894 2.94877 55.0894C12.5972 49.0104 15.6831 41.4716 17.4475 37.1769C17.9357 35.9796 18.3264 35.0296 18.7561 34.3653C18.9644 34.0409 19.1272 33.8323 19.368 33.6855C19.6089 33.5388 19.8693 33.477 20.2339 33.4924C21.1454 33.5079 22.1545 34.0949 23.2287 35.0914C25.7352 37.4318 28.6519 42.1899 30.9045 47.2802C33.1701 52.3859 34.8042 57.8624 34.7261 61.6164C34.6936 63.0763 34.4201 64.3044 33.8212 65.1927C33.8016 65.2236 33.7821 65.2545 33.7496 65.27C33.3524 65.6948 32.9618 65.8956 32.5386 65.9806C32.3889 66.0038 32.2391 66.0269 32.1024 66.0347L32.1219 66.027ZM43.8863 16.5532L47.7209 12.3203C47.6428 12.1503 47.5842 11.965 47.5386 11.7796C47.1089 10.088 47.9227 8.30367 49.3485 7.79387C50.7743 7.28407 52.2782 8.2496 52.7079 9.94121C53.1376 11.6328 52.3238 13.4171 50.898 13.9269C50.3316 14.1278 49.7587 14.0969 49.2378 13.8883L45.2079 18.3375C45.2209 18.3915 45.2404 18.4456 45.2535 18.4997C45.2795 18.5924 45.299 18.6851 45.312 18.7855L50.3055 19.7896C50.6376 19.1176 51.1779 18.5769 51.8615 18.3375C53.2873 17.8277 54.7912 18.7932 55.2209 20.4848C55.6506 22.1764 54.8368 23.9607 53.411 24.4705C51.9852 24.9803 50.4813 24.0148 50.0516 22.3232C50.0386 22.2614 50.0191 22.1919 50.0061 22.1301L44.954 21.1182C44.6219 21.7593 44.0946 22.2614 43.4371 22.4931C42.0113 23.0029 40.5074 22.0374 40.0777 20.3458C39.648 18.6542 40.4618 16.8699 41.8876 16.3601C42.5842 16.0974 43.2938 16.1978 43.8863 16.5532ZM68.2092 51.32L71.51 50.8179C72.5126 50.6634 73.4436 51.5131 73.5738 52.7104L73.9904 56.5416C74.1206 57.7388 73.4045 58.8357 72.3954 58.9902L70.9761 59.2064C71.2821 60.1334 71.6206 60.9521 72.4605 61.6241C70.9761 61.4079 69.7717 60.6972 68.8147 59.5309L68.5673 59.5695C68.4696 59.5849 68.3719 59.5927 68.2678 59.5927C68.7561 58.9902 69.0621 58.2718 68.9839 57.5612L68.8081 55.9623L68.6519 54.5178L68.3915 52.131C68.3589 51.8452 68.2938 51.5749 68.2092 51.32ZM59.0425 51.0033L64.1532 50.2231C65.5464 50.0146 66.829 51.1887 67.0113 52.8417L67.48 57.175C67.5777 58.0555 67.1415 58.9052 66.51 59.5463C65.924 60.1411 65.1428 60.5814 64.4917 60.6818L64.4397 60.6895C64.0555 61.4387 63.5803 62.103 63.0204 62.6746C62.4019 63.308 61.6727 63.8255 60.8394 64.2118C60.6831 64.2813 60.5009 64.2581 60.3641 64.1113C60.1688 63.9105 60.1493 63.5629 60.3186 63.3312C60.6506 62.8755 60.8524 62.4275 60.9891 61.9717C61.0607 61.7168 61.1193 61.4542 61.1584 61.1838L60.1623 61.3383C59.4657 61.4465 58.7951 61.207 58.2808 60.7281C57.7665 60.2569 57.4019 59.5463 57.3107 58.7198L56.842 54.3865C56.6597 52.7413 57.6493 51.2196 59.0425 51.0033Z" fill="white"/>
</g>
<defs>
<clipPath id="clip0_293_133">
<rect width="80" height="80" fill="white"/>
</clipPath>
</defs>
</svg>
