<svg width="52" height="52" viewBox="0 0 52 52" fill="none" xmlns="http://www.w3.org/2000/svg">
<rect width="52" height="52" rx="26" fill="#E4E7EC"/>
<path d="M10.9435 41.4126C10.8525 41.4126 10.7615 41.3778 10.6922 41.3084C10.5531 41.1694 10.5531 40.9447 10.6922 40.8057L25.0007 26.4971C25.1398 26.3581 25.3645 26.3581 25.5035 26.4971C25.6425 26.6361 25.6425 26.8608 25.5035 26.9998L11.1949 41.3084C11.1252 41.3778 11.0342 41.4126 10.9435 41.4126Z" fill="black"/>
<path d="M38.2384 24.9547C38.0891 24.9547 37.9433 24.969 37.7997 24.9896C37.6322 24.0961 37.0786 23.3395 36.3188 22.8989C35.58 23.8867 34.7686 24.8986 33.8818 25.935L33.9693 29.3871H37.7457H40.9883C41.192 28.9764 41.3094 28.5153 41.3094 28.026C41.3094 26.3297 39.9344 24.9547 38.2384 24.9547Z" fill="#121212"/>
<path d="M18.4625 18.9078C19.0762 18.2941 19.9281 17.9517 20.7939 17.9766L26.3992 18.1188C27.3852 17.2751 28.348 16.5024 29.2902 15.7924C28.5496 14.7083 27.3045 13.9961 25.8922 13.9961C25.692 13.9961 25.4972 14.0153 25.3045 14.0431C24.9479 12.1348 23.2764 10.6902 21.265 10.6902C19.2536 10.6902 17.5822 12.1348 17.2252 14.0424C17.0328 14.0146 16.8376 13.9954 16.6375 13.9954C14.3658 13.9954 12.5244 15.8368 12.5244 18.1085C12.5244 18.7641 12.6819 19.3817 12.9546 19.9318H17.4385L18.4625 18.9078Z" fill="#121212"/>
<path d="M33.6447 20.55C33.0175 20.55 32.4276 20.3057 31.9843 19.862C31.5405 19.4183 31.2959 18.8288 31.2959 18.2016C31.2959 17.574 31.5405 16.9845 31.9843 16.5408C32.4276 16.097 33.0175 15.8528 33.6447 15.8528C34.2722 15.8528 34.8621 16.097 35.3055 16.5408C35.7492 16.9845 35.9935 17.574 35.9935 18.2016C35.9935 18.8288 35.7492 19.4186 35.3055 19.862C34.8621 20.3057 34.2719 20.55 33.6447 20.55ZM33.6447 16.5639C33.2077 16.5639 32.7963 16.7342 32.487 17.0435C32.1777 17.3529 32.007 17.7639 32.007 18.2016C32.007 18.6389 32.1773 19.0499 32.487 19.3593C32.7963 19.6686 33.2074 19.8389 33.6447 19.8389C34.082 19.8389 34.4934 19.6686 34.8027 19.3593C35.1121 19.0499 35.2824 18.6389 35.2824 18.2016C35.2824 17.7642 35.1121 17.3529 34.8027 17.0435C34.493 16.7342 34.082 16.5639 33.6447 16.5639Z" fill="black"/>
<path d="M41.9951 11.1809C42.025 10.8598 41.9116 10.5448 41.6833 10.3165C41.455 10.0883 41.1379 9.97484 40.819 10.0047C36.6842 10.3919 31.7495 13.0351 26.0962 17.8792L20.4567 17.7362C19.6115 17.711 18.7899 18.0445 18.1947 18.6397L15.6183 21.2161C15.3324 21.5019 15.2236 21.9062 15.3278 22.2969C15.432 22.6877 15.7271 22.9842 16.1175 23.0902L20.1246 24.1768L22.6334 26.6852C22.7724 26.8242 22.9971 26.8242 23.1362 26.6852C23.2752 26.5462 23.2752 26.3215 23.1362 26.1824L20.8083 23.8546C28.8122 15.6317 35.5656 11.2111 40.8854 10.713C40.9953 10.7044 41.1027 10.7418 41.1806 10.8196C41.2584 10.8975 41.2972 11.0052 41.2869 11.1147C40.7891 16.4342 36.3678 23.188 28.1452 31.1919L25.817 28.8637C25.678 28.7247 25.4533 28.7247 25.3143 28.8637C25.1753 29.0027 25.1753 29.2274 25.3143 29.3664L27.8234 31.8752L28.91 35.882C29.0156 36.2727 29.3125 36.5678 29.7033 36.672C29.8007 36.698 29.8992 36.7108 29.9966 36.7108C30.2881 36.7104 30.5694 36.5959 30.7838 36.3812L33.3598 33.8052C33.9557 33.2093 34.2853 32.3851 34.2636 31.5431L34.1207 25.9037C38.9644 20.2504 41.6076 15.3156 41.9951 11.1809ZM20.2007 23.4607L16.3038 22.404C16.098 22.3481 16.0336 22.1825 16.0151 22.1142C15.997 22.0456 15.9707 21.8696 16.1214 21.7192L18.6978 19.1428C19.1564 18.6845 19.7929 18.4317 20.4389 18.4473L25.3008 18.5704C23.6592 20.0193 21.9582 21.6505 20.2007 23.4607ZM33.5525 31.5613C33.5692 32.2091 33.3157 32.8438 32.857 33.3024L30.281 35.8784C30.1303 36.0292 29.955 36.0029 29.8864 35.9847C29.8177 35.9662 29.6521 35.9019 29.5962 35.6957L28.5395 31.7991C30.3493 30.0416 31.9809 28.341 33.4298 26.6994L33.5525 31.5613Z" fill="black"/>
<path d="M18.8996 37.5676C18.8086 37.5676 18.7175 37.5328 18.6482 37.4635C18.5092 37.3244 18.5092 37.0997 18.6482 36.9607L24.4601 31.1485C24.5991 31.0094 24.8238 31.0094 24.9629 31.1485C25.1019 31.2875 25.1019 31.5122 24.9629 31.6512L19.151 37.4635C19.0813 37.5328 18.9903 37.5676 18.8996 37.5676Z" fill="#121212"/>
<path d="M13.172 34.7219C13.081 34.7219 12.99 34.687 12.9207 34.6177C12.7817 34.4787 12.7817 34.254 12.9207 34.115L19.9646 27.0711C20.1036 26.932 20.3283 26.932 20.4673 27.0711C20.6063 27.2101 20.6063 27.4348 20.4673 27.5738L13.4234 34.6177C13.3537 34.6874 13.2631 34.7219 13.172 34.7219Z" fill="#121212"/>
<path d="M22.7531 38.092C22.6621 38.092 22.5711 38.0572 22.5017 37.9878C22.3627 37.8488 22.3627 37.6241 22.5017 37.4851L25.6427 34.3438C25.7817 34.2047 26.0064 34.2047 26.1455 34.3438C26.2845 34.4828 26.2845 34.7075 26.1455 34.8465L23.0045 37.9878C22.9351 38.0572 22.8441 38.092 22.7531 38.092Z" fill="#121212"/>
<path d="M14.7453 28.7706C14.6543 28.7706 14.5632 28.7357 14.4939 28.6664C14.3549 28.5274 14.3549 28.3027 14.4939 28.1636L17.0624 25.5955C17.2015 25.4565 17.4262 25.4565 17.5652 25.5955C17.7042 25.7345 17.7042 25.9592 17.5652 26.0986L14.9967 28.6668C14.9273 28.7357 14.8363 28.7706 14.7453 28.7706Z" fill="#121212"/>
<path d="M17.0499 40.1736C16.8536 40.1736 16.6943 40.0146 16.6943 39.818V38.3048C16.6943 38.1082 16.8536 37.9492 17.0499 37.9492C17.2462 37.9492 17.4054 38.1082 17.4054 38.3048V39.818C17.4054 40.0146 17.2465 40.1736 17.0499 40.1736Z" fill="#121212"/>
<path d="M17.8069 39.4169H16.294C16.0978 39.4169 15.9385 39.258 15.9385 39.0614C15.9385 38.8647 16.0978 38.7058 16.294 38.7058H17.8069C18.0032 38.7058 18.1625 38.8647 18.1625 39.0614C18.1625 39.258 18.0032 39.4169 17.8069 39.4169Z" fill="#121212"/>
<path d="M12.8927 31.3791C12.6964 31.3791 12.5371 31.2202 12.5371 31.0236V29.5103C12.5371 29.3137 12.6964 29.1548 12.8927 29.1548C13.0889 29.1548 13.2482 29.3137 13.2482 29.5103V31.0236C13.2482 31.2202 13.0893 31.3791 12.8927 31.3791Z" fill="#121212"/>
<path d="M13.6497 30.6225H12.1368C11.9405 30.6225 11.7812 30.4636 11.7812 30.2669C11.7812 30.0703 11.9405 29.9114 12.1368 29.9114H13.6497C13.846 29.9114 14.0052 30.0703 14.0052 30.2669C14.0052 30.4636 13.846 30.6225 13.6497 30.6225Z" fill="#121212"/>
<path d="M11.1356 37.5382C10.8324 37.5382 10.5472 37.4198 10.3324 37.205C10.118 36.991 10 36.7054 10 36.4025C10 36.0996 10.118 35.8141 10.3324 35.5993C10.7755 35.157 11.4958 35.157 11.9385 35.5993C12.1532 35.8141 12.2713 36.0992 12.2713 36.4025C12.2713 36.7058 12.1532 36.9906 11.9388 37.2054C11.7241 37.4198 11.4389 37.5382 11.1356 37.5382ZM11.1356 35.978C11.0268 35.978 10.9184 36.0192 10.8356 36.1021C10.7552 36.1824 10.7111 36.2887 10.7111 36.4025C10.7111 36.5156 10.7552 36.6222 10.8356 36.7026C10.9959 36.863 11.2757 36.863 11.4357 36.7026C11.5161 36.6222 11.5602 36.5159 11.5602 36.4025C11.5602 36.2891 11.5161 36.1824 11.4357 36.1021C11.3529 36.0196 11.2441 35.978 11.1356 35.978Z" fill="#121212"/>
<path d="M20.9003 40.7235C20.6094 40.7235 20.3186 40.6125 20.0974 40.3914C19.8827 40.177 19.7646 39.8918 19.7646 39.5882C19.7646 39.2849 19.8827 38.9997 20.0974 38.7853C20.5401 38.343 21.2605 38.343 21.7035 38.7853C21.9182 38.9997 22.0363 39.2849 22.0363 39.5882C22.0363 39.8918 21.9182 40.177 21.7035 40.3914C21.482 40.6129 21.1911 40.7235 20.9003 40.7235ZM20.9003 39.1644C20.7915 39.1644 20.683 39.2056 20.6002 39.2885C20.5198 39.3688 20.4758 39.4751 20.4758 39.5885C20.4758 39.702 20.5198 39.8086 20.6002 39.889C20.7659 40.0543 21.035 40.0543 21.2004 39.889C21.2807 39.8086 21.3248 39.7023 21.3248 39.5885C21.3248 39.4755 21.2807 39.3688 21.2004 39.2885C21.1179 39.206 21.0091 39.1644 20.9003 39.1644Z" fill="#121212"/>
</svg>
