<svg width="52" height="52" viewBox="0 0 52 52" fill="none" xmlns="http://www.w3.org/2000/svg">
<rect width="52" height="52" rx="26" fill="#E4E7EC"/>
<path d="M27.5718 31.9582C30.2418 34.0261 32.6822 36.4302 34.8991 39.1608C35.5128 39.7819 35.5066 40.7924 34.8854 41.4061C34.2642 42.0197 33.1573 41.9228 32.5437 41.3016L32.4464 41.1937C33.06 41.8149 33.0538 42.8253 32.4326 43.439C31.8115 44.0526 30.801 44.0464 30.1874 43.4253L29.2344 42.4603C29.848 43.0815 29.8418 44.092 29.2207 44.7056C28.5995 45.3192 27.589 45.3131 26.9754 44.6919L26.6595 44.372C23.5418 46.8359 18.5075 41.545 13.4932 35.6621L16.3746 26.3599H21.3925L27.5718 31.9582Z" fill="#FEC9A3"/>
<path d="M33.1291 38.926L37.6626 36.1662L34.7134 26.6453C32.3372 25.5583 28.5098 24.8527 25.0479 24.9858C21.7271 24.9858 16.8601 30.34 18.6037 32.0711C19.8022 33.021 21.121 33.6178 23.5088 31.0775C24.317 31.1571 25.0634 31.0394 25.708 30.5966L27.5706 31.9583L27.0211 32.9719L33.1291 38.926Z" fill="#FEC9A3"/>
<path d="M24.8781 45.6506C21.5065 45.6506 17.169 40.9504 12.9475 35.9971C12.7891 35.8112 12.8112 35.5316 12.9974 35.3737C13.1824 35.2144 13.462 35.2365 13.6213 35.4232C18.279 40.8884 23.4934 46.5257 26.4054 44.2247C26.5983 44.0725 26.8757 44.1057 27.0265 44.2973C27.1783 44.4893 27.146 44.7671 26.954 44.9184C26.3169 45.4223 25.621 45.6506 24.8781 45.6506Z" fill="black"/>
<path d="M28.1508 45.8176C28.1464 45.8176 28.142 45.8176 28.1376 45.8176C27.5867 45.814 27.0718 45.5977 26.6864 45.2079L21.3473 39.8034C21.1757 39.629 21.1774 39.3494 21.3513 39.1778C21.5252 39.0052 21.8052 39.0074 21.9769 39.1813L27.316 44.5863C27.535 44.808 27.8287 44.931 28.1433 44.9332C28.4565 44.9372 28.7534 44.8155 28.9746 44.5965C29.1963 44.378 29.3192 44.0842 29.3215 43.7696C29.3232 43.4551 29.2033 43.16 28.9843 42.9383L24.615 38.515C24.4434 38.3407 24.4451 38.0611 24.619 37.8895C24.7924 37.7169 25.0725 37.7196 25.2446 37.893L29.6139 42.3163C29.9992 42.7065 30.2094 43.2246 30.2059 43.7749C30.2028 44.3258 29.9864 44.8412 29.5966 45.2265C29.21 45.6079 28.6968 45.8176 28.1508 45.8176Z" fill="black"/>
<path d="M31.4192 44.5292C31.4148 44.5292 31.4104 44.5292 31.4064 44.5287C30.8556 44.5256 30.3401 44.3093 29.9552 43.9191L28.9859 42.9378C28.8138 42.7635 28.8156 42.4839 28.9894 42.3122C29.1638 42.1397 29.4434 42.1423 29.615 42.3157L30.5848 43.2975C30.8038 43.5191 31.0971 43.6421 31.4117 43.6443C31.4143 43.6443 31.417 43.6443 31.4192 43.6443C31.7311 43.6443 32.0235 43.5244 32.243 43.3076C32.4646 43.0887 32.5876 42.7949 32.5898 42.4803C32.592 42.1658 32.4722 41.8707 32.2532 41.649L27.8838 37.2257C27.7117 37.0514 27.7135 36.7718 27.8874 36.6001C28.0617 36.4276 28.3413 36.4303 28.513 36.6037L32.8827 41.027C33.2681 41.4172 33.4782 41.9353 33.4747 42.4861C33.4711 43.0369 33.2548 43.5519 32.865 43.9372C32.4779 44.3195 31.9651 44.5292 31.4192 44.5292Z" fill="black"/>
<path d="M19.2957 34.047C18.5944 34.047 17.9344 33.7988 17.3101 33.3046C17.2199 33.2329 17.161 33.1294 17.146 33.0148C16.9562 31.5593 17.8627 29.4883 19.5116 27.6103C21.2733 25.6039 23.3403 24.4063 25.0414 24.4063C28.4754 24.2749 32.5094 24.9681 35.059 26.1348C35.2811 26.2361 35.3789 26.4989 35.2772 26.721C35.1758 26.9426 34.9135 27.0413 34.6909 26.9391C32.2559 25.8255 28.3816 25.1646 25.0582 25.2911C23.6128 25.2915 21.7484 26.4042 20.1761 28.1942C18.7838 29.7803 17.9512 31.5301 18.0078 32.7228C18.9015 33.3599 20.2495 33.6532 22.712 31.1841C22.8058 31.0899 22.9368 31.0443 23.0686 31.0563C23.6915 31.1186 24.7741 30.6652 25.463 30.1927C25.6647 30.0542 25.9399 30.1055 26.078 30.3068C26.216 30.5085 26.1651 30.7837 25.9638 30.9222C25.4267 31.2912 24.2048 31.9429 23.1996 31.9468C21.7648 33.3489 20.4721 34.047 19.2957 34.047Z" fill="black"/>
<path d="M33.9593 42.4185C33.9155 42.4185 33.8725 42.4172 33.8287 42.4145C33.2686 42.3818 32.7302 42.1429 32.3511 41.7597C32.1794 41.5854 32.1812 41.3058 32.355 41.1337C32.5294 40.962 32.809 40.9643 32.9811 41.1377C33.208 41.3682 33.5359 41.5115 33.8801 41.5314C34.222 41.5518 34.5273 41.4483 34.737 41.2408C34.9587 41.0218 35.0817 40.728 35.0839 40.4134C35.0861 40.0989 34.9662 39.8038 34.7472 39.5821C32.4833 36.7971 29.9996 34.3559 27.3358 32.2933C27.1425 32.1433 27.1071 31.8655 27.2566 31.6726C27.4066 31.4793 27.684 31.4447 27.8773 31.5934C30.5947 33.698 33.1271 36.1875 35.4051 38.992C35.7617 39.3503 35.9714 39.8679 35.9678 40.4192C35.9643 40.9705 35.7479 41.485 35.3582 41.8703C35.0029 42.2221 34.4981 42.4185 33.9593 42.4185Z" fill="black"/>
<path d="M18.4456 26.6888H16.2149C15.9707 26.6888 15.7725 26.4906 15.7725 26.2464C15.7725 26.0022 15.9707 25.804 16.2149 25.804H18.4456C18.6898 25.804 18.888 26.0022 18.888 26.2464C18.888 26.4901 18.6902 26.6888 18.4456 26.6888Z" fill="black"/>
<path d="M36.1011 37.7469C35.9515 37.7469 35.806 37.6712 35.7228 37.535C35.5958 37.3257 35.6617 37.0536 35.8706 36.9266L37.646 35.8463C37.8553 35.7197 38.1273 35.7856 38.2539 35.9945C38.3808 36.2033 38.3149 36.4754 38.1061 36.6024L36.3307 37.6827C36.2586 37.7261 36.1789 37.7469 36.1011 37.7469Z" fill="black"/>
<path d="M12.8816 37.4513H7.94242C7.6982 37.4513 7.5 37.2536 7.5 37.0089V23.305C7.5 23.1838 7.54955 23.0679 7.63759 22.9843C7.72563 22.9011 7.8442 22.856 7.96454 22.863C10.5536 22.9913 13.3647 23.4214 16.8102 24.2164C16.9301 24.2443 17.0332 24.3204 17.0943 24.427C17.1558 24.5336 17.1699 24.661 17.1332 24.7783L13.3045 37.139C13.247 37.3248 13.0758 37.4513 12.8816 37.4513ZM8.38484 36.5665H12.5555L16.1466 24.9734C13.1665 24.3031 10.6757 23.9182 8.38484 23.7731V36.5665Z" fill="black"/>
<path d="M43.0579 37.4515H38.1183C37.9245 37.4515 37.7533 37.3254 37.6958 37.14L33.8675 24.7793C33.8312 24.6616 33.8449 24.5342 33.9064 24.4276C33.9679 24.3209 34.0706 24.2444 34.1909 24.217C37.636 23.4219 40.4467 22.9919 43.0362 22.8636C43.157 22.8574 43.2755 22.9012 43.3631 22.9848C43.4507 23.0685 43.5007 23.1844 43.5007 23.3056V37.009C43.5003 37.2533 43.3025 37.4515 43.0579 37.4515ZM38.4443 36.5666H42.6154V23.7732C40.3242 23.9179 37.8342 24.3032 34.8537 24.9731L38.4443 36.5666Z" fill="black"/>
<path d="M20.4242 23.5307C20.3074 23.5307 20.1911 23.4847 20.1039 23.3936C18.4577 21.6681 17.5879 19.5888 17.5879 17.3802V10.1405C17.5879 9.52773 18.0241 9.00347 18.6254 8.89419C20.9808 8.46593 23.0345 7.58109 24.7294 6.26446C25.1833 5.91185 25.8182 5.91185 26.2717 6.26446C27.9666 7.58065 30.0207 8.46549 32.3757 8.89375C32.977 9.00302 33.4136 9.52729 33.4136 10.14V17.3802C33.4136 19.4605 32.6323 21.4429 31.1551 23.1126C30.9936 23.2967 30.7135 23.3126 30.5304 23.1507C30.3477 22.9887 30.3304 22.7091 30.4923 22.526C31.8249 21.02 32.5288 19.2406 32.5288 17.3798V10.1405C32.5288 9.95555 32.3978 9.79761 32.2178 9.76487C29.7212 9.3105 27.5379 8.36815 25.7293 6.96392C25.5943 6.85907 25.4067 6.85907 25.2723 6.96392C23.4636 8.3686 21.2803 9.31139 18.7837 9.76531C18.6032 9.79805 18.4727 9.95599 18.4727 10.1409V17.3811C18.4727 19.3574 19.258 21.2257 20.7445 22.7835C20.9131 22.9604 20.9065 23.2405 20.7299 23.409C20.6437 23.49 20.534 23.5307 20.4242 23.5307Z" fill="black"/>
<path d="M24.4614 19.315C24.326 19.315 24.1977 19.2526 24.1141 19.1465L22.0365 16.511C21.8852 16.319 21.9179 16.0411 22.1099 15.8898C22.3024 15.739 22.5798 15.7712 22.7311 15.9633L24.4614 18.1581L28.2688 13.3273C28.4201 13.1358 28.6984 13.1026 28.89 13.2539C29.082 13.4052 29.1147 13.683 28.9634 13.875L24.8087 19.1465C24.7251 19.2526 24.5972 19.315 24.4614 19.315Z" fill="black"/>
</svg>
