<svg width="52" height="52" viewBox="0 0 52 52" fill="none" xmlns="http://www.w3.org/2000/svg">
<rect width="52" height="52" rx="26" fill="#E4E7EC"/>
<path d="M38.4422 19.2118C37.9507 19.2118 37.5513 19.6106 37.5513 20.1026V36.3696C37.5513 38.0888 36.1525 39.4875 34.4334 39.4875H14.8996C13.1807 39.4875 11.7817 38.0888 11.7817 36.3696V16.8357C11.7817 15.1164 13.1807 13.7178 14.8996 13.7178H34.4334C34.9258 13.7178 35.3245 13.3189 35.3245 12.8269C35.3245 12.3349 34.926 11.936 34.4334 11.936H14.8996C12.1985 11.9361 10 14.134 10 16.8356V36.3696C10 39.0712 12.1985 41.2691 14.8996 41.2691H34.4334C37.1355 41.2691 39.3332 39.0712 39.3332 36.3696V20.1025C39.333 19.6107 38.9346 19.2118 38.4422 19.2118Z" fill="#121212"/>
<path d="M41.7385 11.261C41.3906 10.913 40.8259 10.913 40.479 11.261L22.5787 29.1604L18.1046 24.6868C17.7567 24.3388 17.1928 24.3388 16.8449 24.6868C16.497 25.0347 16.497 25.5987 16.8449 25.9464L21.9497 31.05C22.1238 31.2241 22.3517 31.311 22.5796 31.311C22.8075 31.311 23.0356 31.2241 23.2095 31.05C23.2095 31.0495 23.2095 31.0491 23.2104 31.0486L41.7385 12.5206C42.0865 12.1729 42.0865 11.6087 41.7385 11.261Z" fill="#121212"/>
</svg>
